<svg width="65" height="64" viewBox="0 0 65 64" fill="none" xmlns="http://www.w3.org/2000/svg">
<rect x="0.333496" width="64" height="64" rx="16" fill="#FF4785"/>
<path d="M32 41C32 36.589 35.589 33 40 33C40.692 33 41.359 33.097 42 33.263V22C42 21.3434 41.8707 20.6932 41.6194 20.0866C41.3681 19.48 40.9998 18.9288 40.5355 18.4645C40.0712 18.0002 39.52 17.6319 38.9134 17.3806C38.3068 17.1293 37.6566 17 37 17H25C23.6739 17 22.4021 17.5268 21.4645 18.4645C20.5268 19.4021 20 20.6739 20 22V39C20 40.3261 20.5268 41.5979 21.4645 42.5355C22.4021 43.4732 23.6739 44 25 44H32.589C32.2003 43.0476 32.0003 42.0287 32 41ZM25 22H33C33.2652 22 33.5196 22.1054 33.7071 22.2929C33.8946 22.4804 34 22.7348 34 23C34 23.2652 33.8946 23.5196 33.7071 23.7071C33.5196 23.8946 33.2652 24 33 24H25C24.7348 24 24.4804 23.8946 24.2929 23.7071C24.1054 23.5196 24 23.2652 24 23C24 22.7348 24.1054 22.4804 24.2929 22.2929C24.4804 22.1054 24.7348 22 25 22ZM25 27H37C37.2652 27 37.5196 27.1054 37.7071 27.2929C37.8946 27.4804 38 27.7348 38 28C38 28.2652 37.8946 28.5196 37.7071 28.7071C37.5196 28.8946 37.2652 29 37 29H25C24.7348 29 24.4804 28.8946 24.2929 28.7071C24.1054 28.5196 24 28.2652 24 28C24 27.7348 24.1054 27.4804 24.2929 27.2929C24.4804 27.1054 24.7348 27 25 27ZM28.38 39H25C24.7348 39 24.4804 38.8946 24.2929 38.7071C24.1054 38.5196 24 38.2652 24 38C24 37.7348 24.1054 37.4804 24.2929 37.2929C24.4804 37.1054 24.7348 37 25 37H28.38C28.6452 37 28.8996 37.1054 29.0871 37.2929C29.2746 37.4804 29.38 37.7348 29.38 38C29.38 38.2652 29.2746 38.5196 29.0871 38.7071C28.8996 38.8946 28.6452 39 28.38 39ZM31.07 34H25C24.7348 34 24.4804 33.8946 24.2929 33.7071C24.1054 33.5196 24 33.2652 24 33C24 32.7348 24.1054 32.4804 24.2929 32.2929C24.4804 32.1054 24.7348 32 25 32H31.07C31.3352 32 31.5896 32.1054 31.7771 32.2929C31.9646 32.4804 32.07 32.7348 32.07 33C32.07 33.2652 31.9646 33.5196 31.7771 33.7071C31.5896 33.8946 31.3352 34 31.07 34Z" fill="white"/>
<path d="M40 35C36.692 35 34 37.692 34 41C34 44.308 36.692 47 40 47C43.308 47 46 44.308 46 41C46 37.692 43.308 35 40 35ZM42.707 40.574L40.04 43.241C39.9473 43.3342 39.8372 43.4081 39.7159 43.4586C39.5945 43.5091 39.4644 43.535 39.333 43.535C39.2016 43.535 39.0715 43.5091 38.9501 43.4586C38.8288 43.4081 38.7187 43.3342 38.626 43.241L37.293 41.908C37.1055 41.7205 37.0002 41.4662 37.0002 41.201C37.0002 40.9358 37.1055 40.6815 37.293 40.494C37.4805 40.3065 37.7348 40.2012 38 40.2012C38.2652 40.2012 38.5195 40.3065 38.707 40.494L39.333 41.12L41.293 39.161C41.4805 38.9735 41.7348 38.8682 42 38.8682C42.2652 38.8682 42.5195 38.9735 42.707 39.161C42.8945 39.3485 42.9998 39.6028 42.9998 39.868C42.9998 40.1332 42.8945 40.3875 42.707 40.575V40.574Z" fill="white"/>
</svg>
