<svg width="65" height="64" viewBox="0 0 65 64" fill="none" xmlns="http://www.w3.org/2000/svg">
<rect x="0.666504" width="64" height="64" rx="16" fill="#FF4785"/>
<path d="M31.5 38H20C19.45 38 19 37.55 19 37V20C19 19.45 19.45 19 20 19H44.5C45.05 19 45.5 19.45 45.5 20V31.5C45.5 31.775 45.725 32 46 32C46.275 32 46.5 31.775 46.5 31.5V20C46.5 18.895 45.605 18 44.5 18H20C18.895 18 18 18.895 18 20V37C18 38.105 18.895 39 20 39H31.5C31.775 39 32 38.775 32 38.5C32 38.225 31.775 38 31.5 38Z" fill="white"/>
<path d="M41 31V35.025C42.575 35.245 43.815 36.52 43.985 38.12H48C47.815 34.315 44.79 31.245 41 31ZM43.245 40.67L46.08 43.51C46.6526 42.878 47.1126 42.1525 47.44 41.365C47.73 40.655 47.915 39.9 47.98 39.12H43.945C43.8408 39.6852 43.5987 40.2159 43.24 40.665L43.245 40.67Z" fill="white"/>
<path d="M40.505 41.995C38.575 41.995 37.005 40.425 37.005 38.49C37.005 36.73 38.31 35.265 40 35.025V31C36.095 31.26 33 34.52 33 38.49C33 42.46 36.365 46 40.505 46C42.305 46 44.005 45.37 45.37 44.205L42.525 41.355C41.9362 41.7726 41.2319 41.9963 40.51 41.995H40.505ZM33.5 26C33.5 25.735 33.425 25.485 33.3 25.27L34.945 23.39C35.115 23.46 35.3 23.5 35.495 23.5C35.69 23.5 35.875 23.46 36.045 23.39L37.69 25.27C37.57 25.485 37.49 25.735 37.49 26C37.49 26.825 38.165 27.5 38.99 27.5C39.815 27.5 40.49 26.825 40.49 26C40.49 25.735 40.415 25.485 40.29 25.27L41.935 23.39C42.105 23.46 42.29 23.5 42.485 23.5C43.31 23.5 43.985 22.825 43.985 22C43.985 21.175 43.31 20.5 42.485 20.5C41.66 20.5 40.985 21.175 40.985 22C40.985 22.265 41.06 22.515 41.185 22.73L39.54 24.61C39.37 24.54 39.185 24.5 38.99 24.5C38.795 24.5 38.61 24.54 38.44 24.61L36.795 22.73C36.915 22.515 36.995 22.265 36.995 22C36.995 21.175 36.32 20.5 35.495 20.5C34.67 20.5 33.995 21.175 33.995 22C33.995 22.265 34.07 22.515 34.195 22.73L32.55 24.61C32.38 24.54 32.195 24.5 32 24.5C31.175 24.5 30.5 25.175 30.5 26C30.5 26.825 31.175 27.5 32 27.5C32.825 27.5 33.5 26.825 33.5 26Z" fill="white"/>
<path d="M23 30H21C20.7239 30 20.5 30.2239 20.5 30.5V36C20.5 36.2761 20.7239 36.5 21 36.5H23C23.2761 36.5 23.5 36.2761 23.5 36V30.5C23.5 30.2239 23.2761 30 23 30Z" fill="white"/>
<path d="M27 28H25C24.7239 28 24.5 28.2239 24.5 28.5V36C24.5 36.2761 24.7239 36.5 25 36.5H27C27.2761 36.5 27.5 36.2761 27.5 36V28.5C27.5 28.2239 27.2761 28 27 28Z" fill="white"/>
<path d="M31 31.5H29C28.7239 31.5 28.5 31.7239 28.5 32V36C28.5 36.2761 28.7239 36.5 29 36.5H31C31.2761 36.5 31.5 36.2761 31.5 36V32C31.5 31.7239 31.2761 31.5 31 31.5Z" fill="white"/>
<path d="M21 21.5H22C22.275 21.5 22.5 21.275 22.5 21C22.5 20.725 22.275 20.5 22 20.5H21C20.725 20.5 20.5 20.725 20.5 21C20.5 21.275 20.725 21.5 21 21.5ZM24 21.5H28C28.275 21.5 28.5 21.275 28.5 21C28.5 20.725 28.275 20.5 28 20.5H24C23.725 20.5 23.5 20.725 23.5 21C23.5 21.275 23.725 21.5 24 21.5ZM21 24H22C22.275 24 22.5 23.775 22.5 23.5C22.5 23.225 22.275 23 22 23H21C20.725 23 20.5 23.225 20.5 23.5C20.5 23.775 20.725 24 21 24ZM24 24H28C28.275 24 28.5 23.775 28.5 23.5C28.5 23.225 28.275 23 28 23H24C23.725 23 23.5 23.225 23.5 23.5C23.5 23.775 23.725 24 24 24ZM21 26.5H22C22.275 26.5 22.5 26.275 22.5 26C22.5 25.725 22.275 25.5 22 25.5H21C20.725 25.5 20.5 25.725 20.5 26C20.5 26.275 20.725 26.5 21 26.5ZM28.5 26C28.5 25.725 28.275 25.5 28 25.5H24C23.725 25.5 23.5 25.725 23.5 26C23.5 26.275 23.725 26.5 24 26.5H28C28.275 26.5 28.5 26.275 28.5 26Z" fill="white"/>
</svg>
