<svg width="65" height="64" viewBox="0 0 65 64" fill="none" xmlns="http://www.w3.org/2000/svg">
<rect x="0.666504" width="64" height="64" rx="16" fill="#FF4785"/>
<g clip-path="url(#clip0_91_4300)">
<path fill-rule="evenodd" clip-rule="evenodd" d="M46.388 37.9443H19.6116V36.1616H46.388V37.9443ZM19.6116 17.875H46.388V19.6579H19.6116V17.875ZM46.4116 21.5331C46.9025 21.5323 47.3731 21.3369 47.7201 20.9898C48.0672 20.6427 48.2626 20.1721 48.2633 19.6813V17.8515C48.2626 17.3606 48.0673 16.8901 47.7201 16.543C47.373 16.196 46.9025 16.0007 46.4116 16H19.588C19.0972 16.0007 18.6266 16.196 18.2795 16.543C17.9324 16.8901 17.7371 17.3606 17.7363 17.8515V19.6813C17.7371 20.1721 17.9325 20.6426 18.2796 20.9897C18.6267 21.3367 19.0972 21.5321 19.588 21.5329H19.6853V34.2866H19.588C19.0971 34.2873 18.6265 34.4827 18.2794 34.8298C17.9323 35.177 17.737 35.6476 17.7363 36.1386V37.9673C17.737 38.4582 17.9323 38.9289 18.2794 39.276C18.6265 39.6232 19.0971 39.8186 19.588 39.8193H32.0636V42.7329L27.1483 46.3042C27.0487 46.3764 26.9643 46.4676 26.9 46.5724C26.8356 46.6772 26.7925 46.7937 26.7731 46.9152C26.7538 47.0367 26.7586 47.1608 26.7872 47.2805C26.8158 47.4002 26.8677 47.513 26.9399 47.6126C27.0121 47.7122 27.1033 47.7966 27.2081 47.861C27.313 47.9253 27.4295 47.9684 27.551 47.9878C27.6725 48.0071 27.7966 48.0024 27.9162 47.9737C28.0359 47.9451 28.1487 47.8932 28.2483 47.821L33.0015 44.3693L37.7515 47.821C37.9527 47.9672 38.2037 48.0276 38.4493 47.9888C38.6949 47.95 38.9151 47.8151 39.0613 47.614C39.2076 47.4129 39.2679 47.1619 39.2291 46.9162C39.1903 46.6706 39.0555 46.4504 38.8543 46.3042L33.936 42.7329V39.8193H46.4116C46.9026 39.8186 47.3731 39.6232 47.7203 39.276C48.0674 38.9289 48.2627 38.4582 48.2633 37.9673V36.1386C48.2627 35.6476 48.0674 35.177 47.7203 34.8298C47.3732 34.4827 46.9026 34.2873 46.4116 34.2866H46.3143V21.5329L46.4116 21.5331Z" fill="white"/>
</g>
<defs>
<clipPath id="clip0_91_4300">
<rect width="32" height="32" fill="white" transform="translate(17 16)"/>
</clipPath>
</defs>
</svg>
