<svg width="23" height="23" viewBox="0 0 23 23" fill="none" xmlns="http://www.w3.org/2000/svg">
<path d="M17.8907 15.6217C17.9119 15.6217 18.317 15.379 18.7908 15.0823C19.2647 14.7855 19.643 14.525 19.6317 14.5034C19.6203 14.4818 19.3927 14.1746 19.1259 13.8206C18.5902 13.1097 18.0745 12.1699 17.8459 11.4882C17.1336 9.36354 17.4614 7.15727 18.7541 5.3764L19.0832 4.92289L18.4566 4.29628L17.8299 3.66962L17.4157 3.9648C14.7021 5.89871 11.4496 5.6762 8.56605 3.35942C8.37776 3.20812 8.21678 3.09136 8.20826 3.09988C8.12989 3.17825 7.14425 4.78981 7.14448 4.83916C7.14465 4.87485 7.31703 5.02081 7.52754 5.16341C9.85836 6.74269 12.5252 7.25761 14.5866 6.52655L15.0811 6.35119L8.2063 13.251L3.85914 17.614L5.12731 18.8822L9.50154 14.5238L16.3852 7.66531L16.1766 8.30238C15.6354 9.95506 15.857 11.9137 16.8089 13.8884C17.08 14.451 17.8105 15.6213 17.8907 15.6217Z" fill="#707EFF"/>
</svg>
