<svg width="24" height="25" viewBox="0 0 24 25" fill="none" xmlns="http://www.w3.org/2000/svg">
<path d="M23.25 12.5C23.25 13.46 22.0706 14.2512 21.8344 15.1362C21.5906 16.0512 22.2075 17.3263 21.7444 18.1269C21.2738 18.9406 19.8581 19.0381 19.1981 19.6981C18.5381 20.3581 18.4406 21.7738 17.6269 22.2444C16.8263 22.7075 15.5512 22.0906 14.6362 22.3344C13.7512 22.5706 12.96 23.75 12 23.75C11.04 23.75 10.2487 22.5706 9.36375 22.3344C8.44875 22.0906 7.17375 22.7075 6.37313 22.2444C5.55938 21.7738 5.46187 20.3581 4.80188 19.6981C4.14188 19.0381 2.72625 18.9406 2.25563 18.1269C1.7925 17.3263 2.40938 16.0512 2.16563 15.1362C1.92938 14.2512 0.75 13.46 0.75 12.5C0.75 11.54 1.92938 10.7487 2.16563 9.86375C2.40938 8.94875 1.7925 7.67375 2.25563 6.87313C2.72625 6.05938 4.14188 5.96187 4.80188 5.30188C5.46187 4.64188 5.55938 3.22625 6.37313 2.75563C7.17375 2.2925 8.44875 2.90938 9.36375 2.66563C10.2487 2.42938 11.04 1.25 12 1.25C12.96 1.25 13.7512 2.42938 14.6362 2.66563C15.5512 2.90938 16.8263 2.2925 17.6269 2.75563C18.4406 3.22625 18.5381 4.64188 19.1981 5.30188C19.8581 5.96187 21.2738 6.05938 21.7444 6.87313C22.2075 7.67375 21.5906 8.94875 21.8344 9.86375C22.0706 10.7487 23.25 11.54 23.25 12.5Z" fill="#707EFF"/>
<path d="M15.2511 9.14752L10.9686 13.43L8.74861 11.2119C8.51709 10.9805 8.20314 10.8505 7.8758 10.8505C7.54846 10.8505 7.23452 10.9805 7.00299 11.2119C6.77159 11.4434 6.6416 11.7574 6.6416 12.0847C6.6416 12.412 6.77159 12.726 7.00299 12.9575L10.1174 16.0719C10.3427 16.297 10.6482 16.4234 10.9667 16.4234C11.2853 16.4234 11.5908 16.297 11.8161 16.0719L16.9949 10.8931C17.2263 10.6616 17.3563 10.3477 17.3563 10.0203C17.3563 9.69299 17.2263 9.37904 16.9949 9.14752C16.8804 9.03295 16.7445 8.94207 16.5949 8.88006C16.4453 8.81805 16.2849 8.78613 16.123 8.78613C15.961 8.78613 15.8007 8.81805 15.6511 8.88006C15.5015 8.94207 15.3656 9.03295 15.2511 9.14752Z" fill="#FFFCEE"/>
</svg>
