<svg width="24" height="23" viewBox="0 0 24 23" fill="none" xmlns="http://www.w3.org/2000/svg">
<path d="M23.25 11.5C23.25 12.46 22.0706 13.2512 21.8344 14.1362C21.5906 15.0512 22.2075 16.3263 21.7444 17.1269C21.2738 17.9406 19.8581 18.0381 19.1981 18.6981C18.5381 19.3581 18.4406 20.7738 17.6269 21.2444C16.8263 21.7075 15.5512 21.0906 14.6362 21.3344C13.7512 21.5706 12.96 22.75 12 22.75C11.04 22.75 10.2487 21.5706 9.36375 21.3344C8.44875 21.0906 7.17375 21.7075 6.37313 21.2444C5.55938 20.7738 5.46187 19.3581 4.80188 18.6981C4.14188 18.0381 2.72625 17.9406 2.25563 17.1269C1.7925 16.3263 2.40938 15.0512 2.16563 14.1362C1.92938 13.2512 0.75 12.46 0.75 11.5C0.75 10.54 1.92938 9.74875 2.16563 8.86375C2.40938 7.94875 1.7925 6.67375 2.25563 5.87313C2.72625 5.05938 4.14188 4.96187 4.80188 4.30188C5.46187 3.64188 5.55938 2.22625 6.37313 1.75563C7.17375 1.2925 8.44875 1.90938 9.36375 1.66563C10.2487 1.42938 11.04 0.25 12 0.25C12.96 0.25 13.7512 1.42938 14.6362 1.66563C15.5512 1.90938 16.8263 1.2925 17.6269 1.75563C18.4406 2.22625 18.5381 3.64188 19.1981 4.30188C19.8581 4.96187 21.2738 5.05938 21.7444 5.87313C22.2075 6.67375 21.5906 7.94875 21.8344 8.86375C22.0706 9.74875 23.25 10.54 23.25 11.5Z" fill="#707EFF"/>
<path d="M15.2511 8.14752L10.9686 12.43L8.74861 10.2119C8.51709 9.98049 8.20314 9.8505 7.8758 9.8505C7.54846 9.8505 7.23452 9.98049 7.00299 10.2119C6.77159 10.4434 6.6416 10.7574 6.6416 11.0847C6.6416 11.412 6.77159 11.726 7.00299 11.9575L10.1174 15.0719C10.3427 15.297 10.6482 15.4234 10.9667 15.4234C11.2853 15.4234 11.5908 15.297 11.8161 15.0719L16.9949 9.89314C17.2263 9.66161 17.3563 9.34767 17.3563 9.02033C17.3563 8.69299 17.2263 8.37904 16.9949 8.14752C16.8804 8.03295 16.7445 7.94207 16.5949 7.88006C16.4453 7.81805 16.2849 7.78613 16.123 7.78613C15.961 7.78613 15.8007 7.81805 15.6511 7.88006C15.5015 7.94207 15.3656 8.03295 15.2511 8.14752Z" fill="#FFFCEE"/>
</svg>
