<svg width="24" height="24" viewBox="0 0 24 24" fill="none" xmlns="http://www.w3.org/2000/svg">
<path d="M12 0C5.37265 0 0 5.37265 0 12C0 18.6273 5.37265 24 12 24C18.6273 24 24 18.6273 24 12C23.9926 5.3758 18.6242 0.0074 12 0ZM22.3783 16.2039L18.9657 16.7928C19.3562 15.3602 19.5671 13.8846 19.5935 12.4H23.19C23.1449 13.7058 22.8701 14.9934 22.3783 16.2039H22.3783ZM0.81 12.4H4.4065C4.43289 13.8846 4.64382 15.3602 5.03445 16.7928L1.62175 16.2039C1.12989 14.9934 0.855091 13.7058 0.80995 12.4H0.81ZM1.62175 7.7961L5.03445 7.20725C4.64379 8.6398 4.43282 10.1154 4.4064 11.6H0.81C0.855125 10.2942 1.12991 9.00657 1.62175 7.7961ZM12.4 6.42245C13.8374 6.44078 15.2712 6.57171 16.6881 6.81405L18.1 7.0576C18.5338 8.5338 18.7672 10.0616 18.794 11.6H12.4V6.42245ZM16.8244 6.0256C15.3624 5.7757 13.8831 5.6409 12.4 5.62245V0.82245C14.6932 1.04275 16.6852 3.1424 17.8141 6.19805L16.8244 6.0256ZM11.6 5.62245C10.1171 5.6409 8.63785 5.7757 7.176 6.0256L6.18595 6.19685C7.31485 3.1405 9.30685 1.0401 11.6 0.82075V5.62245ZM7.3123 6.81405C8.72911 6.57172 10.1627 6.4408 11.6 6.4225V11.6H5.20605C5.2328 10.0616 5.4662 8.5338 5.9 7.0576L7.3123 6.81405ZM5.20605 12.4H11.6V17.5775C10.1626 17.5592 8.72885 17.4283 7.3119 17.1859L5.9 16.9424C5.4662 15.4662 5.2328 13.9384 5.20605 12.4ZM7.17555 17.9744C8.63755 18.2246 10.1169 18.3601 11.6 18.3797V23.1797C9.30685 22.9592 7.31485 20.8596 6.18595 17.8039L7.17555 17.9744ZM12.4 18.3797C13.883 18.3601 15.3622 18.2246 16.824 17.9744L17.8141 17.8032C16.6852 20.8595 14.6932 22.9599 12.4 23.1793V18.3797ZM16.6877 17.1859C15.2709 17.4283 13.8373 17.5592 12.4 17.5775V12.4H18.794C18.7672 13.9384 18.5338 15.4662 18.1 16.9424L16.6877 17.1859ZM19.5935 11.6C19.5671 10.1154 19.3562 8.63981 18.9656 7.20725L22.3783 7.7961C22.8701 9.00656 23.1449 10.2942 23.1901 11.6H19.5935ZM21.9736 6.9145L18.7024 6.35C18.1143 4.43138 17.014 2.70954 15.5199 1.3699C18.3139 2.30226 20.6309 4.29291 21.9736 6.9145H21.9736ZM8.4801 1.36985C6.98601 2.7095 5.8857 4.43136 5.29765 6.35L2.02635 6.9145C3.36906 4.29289 5.68611 2.30222 8.4801 1.36985ZM2.02635 17.0856L5.29765 17.65C5.8857 19.5686 6.98602 21.2905 8.4801 22.6301C5.68612 21.6977 3.36907 19.7071 2.02635 17.0855V17.0856ZM15.5199 22.63C17.014 21.2904 18.1143 19.5686 18.7024 17.65L21.9736 17.0855C20.6309 19.7071 18.3139 21.6977 15.5199 22.6301V22.63Z" fill="black" fill-opacity="0.2"/>
</svg>
