<svg width="48" height="48" viewBox="0 0 48 48" fill="none" xmlns="http://www.w3.org/2000/svg">
<g clip-path="url(#clip0_704_18500)">
<path d="M24 48C10.7472 48 0 37.2528 0 24C0 10.7472 10.7472 0 24 0C37.2528 0 48 10.7472 48 24C48 37.2528 37.2528 48 24 48Z" fill="url(#paint0_linear_704_18500)"/>
<path d="M24.0005 10.5696C28.3733 10.5696 28.8917 10.584 30.6197 10.6656C32.2181 10.7376 33.0869 11.0064 33.6629 11.232C34.4261 11.5296 34.9733 11.8848 35.5445 12.456C36.1157 13.0272 36.4709 13.5744 36.7685 14.3376C36.9941 14.9136 37.2581 15.7824 37.3349 17.3808C37.4117 19.1088 37.4309 19.6272 37.4309 24C37.4309 28.3728 37.4165 28.8912 37.3349 30.6192C37.2629 32.2176 36.9941 33.0864 36.7685 33.6624C36.4709 34.4256 36.1157 34.9728 35.5445 35.544C34.9733 36.1152 34.4261 36.4704 33.6629 36.768C33.0869 36.9936 32.2181 37.2576 30.6197 37.3344C28.8917 37.4112 28.3733 37.4304 24.0005 37.4304C19.6277 37.4304 19.1093 37.416 17.3813 37.3344C15.7829 37.2624 14.9141 36.9936 14.3381 36.768C13.5749 36.4704 13.0277 36.1152 12.4565 35.544C11.8853 34.9728 11.5301 34.4256 11.2325 33.6624C11.0069 33.0864 10.7429 32.2176 10.6661 30.6192C10.5893 28.8912 10.5701 28.3728 10.5701 24C10.5701 19.6272 10.5845 19.1088 10.6661 17.3808C10.7381 15.7824 11.0069 14.9136 11.2325 14.3376C11.5301 13.5744 11.8853 13.0272 12.4565 12.456C13.0277 11.8848 13.5749 11.5296 14.3381 11.232C14.9141 11.0064 15.7829 10.7424 17.3813 10.6656C19.1093 10.584 19.6277 10.5696 24.0005 10.5696ZM24.0005 7.61761C19.5509 7.61761 18.9941 7.63682 17.2469 7.71842C15.5045 7.80002 14.3141 8.07361 13.2677 8.48161C12.1925 8.89441 11.2757 9.45601 10.3685 10.368C9.45648 11.28 8.89968 12.192 8.47728 13.272C8.07408 14.3136 7.79568 15.504 7.71408 17.2512C7.63248 18.9984 7.61328 19.5552 7.61328 24.0048C7.61328 28.4544 7.63248 29.0112 7.71408 30.7584C7.79568 32.5008 8.06928 33.6912 8.47728 34.7376C8.89488 35.808 9.45648 36.7248 10.3685 37.632C11.2805 38.544 12.1925 39.1008 13.2725 39.5232C14.3141 39.9264 15.5045 40.2048 17.2517 40.2864C18.9989 40.368 19.5557 40.3872 24.0053 40.3872C28.4549 40.3872 29.0117 40.368 30.7589 40.2864C32.5013 40.2048 33.6917 39.9312 34.7381 39.5232C35.8085 39.1056 36.7253 38.544 37.6325 37.632C38.5445 36.72 39.1013 35.808 39.5237 34.728C39.9269 33.6864 40.2053 32.496 40.2869 30.7488C40.3685 29.0016 40.3877 28.4448 40.3877 23.9952C40.3877 19.5456 40.3685 18.9888 40.2869 17.2416C40.2053 15.4992 39.9317 14.3088 39.5237 13.2624C39.1061 12.192 38.5445 11.2752 37.6325 10.368C36.7205 9.45601 35.8085 8.89922 34.7285 8.47682C33.6869 8.07362 32.4965 7.79521 30.7493 7.71361C29.0069 7.63681 28.4501 7.61761 24.0005 7.61761Z" fill="white"/>
<path d="M24.0003 15.5856C19.3539 15.5856 15.5859 19.3536 15.5859 24C15.5859 28.6464 19.3539 32.4144 24.0003 32.4144C28.6467 32.4144 32.4147 28.6464 32.4147 24C32.4147 19.3536 28.6467 15.5856 24.0003 15.5856ZM24.0003 29.4624C20.9859 29.4624 18.5379 27.0192 18.5379 24C18.5379 20.9808 20.9859 18.5376 24.0003 18.5376C27.0147 18.5376 29.4627 20.9808 29.4627 24C29.4627 27.0192 27.0147 29.4624 24.0003 29.4624Z" fill="white"/>
<path d="M32.7453 17.2224C33.8322 17.2224 34.7133 16.3413 34.7133 15.2544C34.7133 14.1675 33.8322 13.2864 32.7453 13.2864C31.6584 13.2864 30.7773 14.1675 30.7773 15.2544C30.7773 16.3413 31.6584 17.2224 32.7453 17.2224Z" fill="white"/>
</g>
<defs>
<linearGradient id="paint0_linear_704_18500" x1="7.02946" y1="40.9706" x2="40.9706" y2="7.02946" gradientUnits="userSpaceOnUse">
<stop stop-color="#FFD521"/>
<stop offset="0.055" stop-color="#FFD020"/>
<stop offset="0.124" stop-color="#FEC01E"/>
<stop offset="0.2" stop-color="#FCA71B"/>
<stop offset="0.282" stop-color="#FA8316"/>
<stop offset="0.368" stop-color="#F85510"/>
<stop offset="0.456" stop-color="#F51E09"/>
<stop offset="0.5" stop-color="#F30005"/>
<stop offset="0.503" stop-color="#F20007"/>
<stop offset="0.597" stop-color="#E1003B"/>
<stop offset="0.688" stop-color="#D30067"/>
<stop offset="0.776" stop-color="#C70088"/>
<stop offset="0.859" stop-color="#BF00A0"/>
<stop offset="0.936" stop-color="#BB00AF"/>
<stop offset="1" stop-color="#B900B4"/>
</linearGradient>
<clipPath id="clip0_704_18500">
<rect width="48" height="48" fill="white"/>
</clipPath>
</defs>
</svg>
