<svg width="48" height="48" viewBox="0 0 48 48" fill="none" xmlns="http://www.w3.org/2000/svg">
<path d="M24 48C37.2548 48 48 37.2548 48 24C48 10.7452 37.2548 0 24 0C10.7452 0 0 10.7452 0 24C0 37.2548 10.7452 48 24 48Z" fill="url(#paint0_linear_704_18508)"/>
<path fill-rule="evenodd" clip-rule="evenodd" d="M10.8641 23.7467C17.8605 20.6984 22.526 18.6888 24.8603 17.7179C31.5253 14.9457 32.9103 14.4641 33.8129 14.4482C34.0115 14.4447 34.4554 14.4939 34.7429 14.7273C35.1695 15.0734 35.1719 15.8247 35.1246 16.3219C34.7634 20.1169 33.2006 29.3263 32.4055 33.5767C32.069 35.3752 31.4066 35.9783 30.7653 36.0373C29.3716 36.1655 28.3133 35.1162 26.9634 34.2314C24.8511 32.8467 23.6577 31.9848 21.6073 30.6336C19.2378 29.0721 20.7739 28.2139 22.1243 26.8114C22.4777 26.4443 28.6184 20.8588 28.7373 20.3521C28.7522 20.2887 28.766 20.0524 28.6256 19.9278C28.4853 19.8031 28.2782 19.8456 28.1288 19.8796C27.9169 19.9277 24.5425 22.1581 18.0055 26.5707C17.0476 27.2284 16.1801 27.5489 15.4028 27.5321C14.5458 27.5136 12.8975 27.0476 11.6721 26.6493C10.1691 26.1607 8.97452 25.9024 9.07858 25.0727C9.13277 24.6404 9.7279 24.1984 10.8641 23.7467Z" fill="white"/>
<defs>
<linearGradient id="paint0_linear_704_18508" x1="24" y1="0" x2="24" y2="47.625" gradientUnits="userSpaceOnUse">
<stop stop-color="#2AABEE"/>
<stop offset="1" stop-color="#229ED9"/>
</linearGradient>
</defs>
</svg>
