<svg width="48" height="49" viewBox="0 0 48 49" fill="none" xmlns="http://www.w3.org/2000/svg">
<g clip-path="url(#clip0_809_314)">
<path d="M24 48.8672C10.7472 48.8672 0 38.12 0 24.8672C0 11.6144 10.7472 0.867188 24 0.867188C37.2528 0.867188 48 11.6144 48 24.8672C48 38.12 37.2528 48.8672 24 48.8672Z" fill="url(#paint0_linear_809_314)"/>
<path d="M24.0005 11.4364C28.3733 11.4364 28.8917 11.4508 30.6197 11.5324C32.2181 11.6044 33.0869 11.8732 33.6629 12.0988C34.4261 12.3964 34.9733 12.7516 35.5445 13.3228C36.1157 13.894 36.4709 14.4412 36.7685 15.2044C36.9941 15.7804 37.2581 16.6492 37.3349 18.2476C37.4117 19.9756 37.4309 20.494 37.4309 24.8668C37.4309 29.2396 37.4165 29.758 37.3349 31.486C37.2629 33.0844 36.9941 33.9532 36.7685 34.5292C36.4709 35.2924 36.1157 35.8396 35.5445 36.4108C34.9733 36.982 34.4261 37.3372 33.6629 37.6348C33.0869 37.8604 32.2181 38.1244 30.6197 38.2012C28.8917 38.278 28.3733 38.2972 24.0005 38.2972C19.6277 38.2972 19.1093 38.2828 17.3813 38.2012C15.7829 38.1292 14.9141 37.8604 14.3381 37.6348C13.5749 37.3372 13.0277 36.982 12.4565 36.4108C11.8853 35.8396 11.5301 35.2924 11.2325 34.5292C11.0069 33.9532 10.7429 33.0844 10.6661 31.486C10.5893 29.758 10.5701 29.2396 10.5701 24.8668C10.5701 20.494 10.5845 19.9756 10.6661 18.2476C10.7381 16.6492 11.0069 15.7804 11.2325 15.2044C11.5301 14.4412 11.8853 13.894 12.4565 13.3228C13.0277 12.7516 13.5749 12.3964 14.3381 12.0988C14.9141 11.8732 15.7829 11.6092 17.3813 11.5324C19.1093 11.4508 19.6277 11.4364 24.0005 11.4364ZM24.0005 8.48438C19.5509 8.48438 18.9941 8.50358 17.2469 8.58518C15.5045 8.66678 14.3141 8.94038 13.2677 9.34838C12.1925 9.76118 11.2757 10.3228 10.3685 11.2348C9.45648 12.1468 8.89968 13.0588 8.47728 14.1388C8.07408 15.1804 7.79568 16.3708 7.71408 18.118C7.63248 19.8652 7.61328 20.422 7.61328 24.8716C7.61328 29.3212 7.63248 29.878 7.71408 31.6252C7.79568 33.3676 8.06928 34.558 8.47728 35.6044C8.89488 36.6748 9.45648 37.5916 10.3685 38.4988C11.2805 39.4108 12.1925 39.9676 13.2725 40.39C14.3141 40.7932 15.5045 41.0716 17.2517 41.1532C18.9989 41.2348 19.5557 41.254 24.0053 41.254C28.4549 41.254 29.0117 41.2348 30.7589 41.1532C32.5013 41.0716 33.6917 40.798 34.7381 40.39C35.8085 39.9724 36.7253 39.4108 37.6325 38.4988C38.5445 37.5868 39.1013 36.6748 39.5237 35.5948C39.9269 34.5532 40.2053 33.3628 40.2869 31.6156C40.3685 29.8684 40.3877 29.3116 40.3877 24.862C40.3877 20.4124 40.3685 19.8556 40.2869 18.1084C40.2053 16.366 39.9317 15.1756 39.5237 14.1292C39.1061 13.0588 38.5445 12.142 37.6325 11.2348C36.7205 10.3228 35.8085 9.76598 34.7285 9.34358C33.6869 8.94038 32.4965 8.66198 30.7493 8.58038C29.0069 8.50357 28.4501 8.48438 24.0005 8.48438Z" fill="white"/>
<path d="M24.0003 16.4531C19.3539 16.4531 15.5859 20.2211 15.5859 24.8675C15.5859 29.5139 19.3539 33.2819 24.0003 33.2819C28.6467 33.2819 32.4147 29.5139 32.4147 24.8675C32.4147 20.2211 28.6467 16.4531 24.0003 16.4531ZM24.0003 30.3299C20.9859 30.3299 18.5379 27.8867 18.5379 24.8675C18.5379 21.8483 20.9859 19.4051 24.0003 19.4051C27.0147 19.4051 29.4627 21.8483 29.4627 24.8675C29.4627 27.8867 27.0147 30.3299 24.0003 30.3299Z" fill="white"/>
<path d="M32.7453 18.0883C33.8322 18.0883 34.7133 17.2072 34.7133 16.1203C34.7133 15.0334 33.8322 14.1523 32.7453 14.1523C31.6584 14.1523 30.7773 15.0334 30.7773 16.1203C30.7773 17.2072 31.6584 18.0883 32.7453 18.0883Z" fill="white"/>
</g>
<defs>
<linearGradient id="paint0_linear_809_314" x1="7.02946" y1="41.8378" x2="40.9706" y2="7.89664" gradientUnits="userSpaceOnUse">
<stop stop-color="#FFD521"/>
<stop offset="0.055" stop-color="#FFD020"/>
<stop offset="0.124" stop-color="#FEC01E"/>
<stop offset="0.2" stop-color="#FCA71B"/>
<stop offset="0.282" stop-color="#FA8316"/>
<stop offset="0.368" stop-color="#F85510"/>
<stop offset="0.456" stop-color="#F51E09"/>
<stop offset="0.5" stop-color="#F30005"/>
<stop offset="0.503" stop-color="#F20007"/>
<stop offset="0.597" stop-color="#E1003B"/>
<stop offset="0.688" stop-color="#D30067"/>
<stop offset="0.776" stop-color="#C70088"/>
<stop offset="0.859" stop-color="#BF00A0"/>
<stop offset="0.936" stop-color="#BB00AF"/>
<stop offset="1" stop-color="#B900B4"/>
</linearGradient>
<clipPath id="clip0_809_314">
<rect width="48" height="48" fill="white" transform="translate(0 0.867188)"/>
</clipPath>
</defs>
</svg>
