<svg width="48" height="49" viewBox="0 0 48 49" fill="none" xmlns="http://www.w3.org/2000/svg">
<g clip-path="url(#clip0_809_321)">
<path d="M24 48.8672C37.2548 48.8672 48 38.122 48 24.8672C48 11.6124 37.2548 0.867188 24 0.867188C10.7452 0.867188 0 11.6124 0 24.8672C0 38.122 10.7452 48.8672 24 48.8672Z" fill="url(#paint0_linear_809_321)"/>
<path fill-rule="evenodd" clip-rule="evenodd" d="M10.8641 24.6151C17.8605 21.5668 22.526 19.5572 24.8603 18.5863C31.5253 15.8141 32.9103 15.3325 33.8129 15.3166C34.0115 15.3131 34.4554 15.3623 34.7429 15.5957C35.1695 15.9418 35.1719 16.6931 35.1246 17.1904C34.7634 20.9854 33.2006 30.1947 32.4055 34.4451C32.069 36.2436 31.4066 36.8467 30.7653 36.9057C29.3716 37.0339 28.3133 35.9846 26.9634 35.0998C24.8511 33.7151 23.6577 32.8532 21.6073 31.502C19.2378 29.9405 20.7739 29.0824 22.1243 27.6798C22.4777 27.3127 28.6184 21.7272 28.7373 21.2205C28.7522 21.1571 28.766 20.9209 28.6256 20.7962C28.4853 20.6715 28.2782 20.714 28.1288 20.748C27.9169 20.7961 24.5425 23.0265 18.0055 27.4391C17.0476 28.0969 16.1801 28.4173 15.4028 28.4005C14.5458 28.382 12.8975 27.916 11.6721 27.5177C10.1691 27.0291 8.97452 26.7708 9.07858 25.9411C9.13277 25.5088 9.7279 25.0669 10.8641 24.6151Z" fill="white"/>
</g>
<defs>
<linearGradient id="paint0_linear_809_321" x1="24" y1="0.867188" x2="24" y2="48.4922" gradientUnits="userSpaceOnUse">
<stop stop-color="#2AABEE"/>
<stop offset="1" stop-color="#229ED9"/>
</linearGradient>
<clipPath id="clip0_809_321">
<rect width="48" height="48" fill="white" transform="translate(0 0.867188)"/>
</clipPath>
</defs>
</svg>
