<svg width="48" height="49" viewBox="0 0 48 49" fill="none" xmlns="http://www.w3.org/2000/svg">
<path d="M48 24.8672C48 36.8466 39.2231 46.7756 27.75 48.5756V31.8047H33.3422L34.4062 24.8672H27.75V20.3653C27.75 18.4669 28.68 16.6172 31.6613 16.6172H34.6875V10.7109C34.6875 10.7109 31.9406 10.2422 29.3147 10.2422C23.8331 10.2422 20.25 13.5647 20.25 19.5797V24.8672H14.1562V31.8047H20.25V48.5756C8.77688 46.7756 0 36.8466 0 24.8672C0 11.6128 10.7456 0.867188 24 0.867188C37.2544 0.867188 48 11.6128 48 24.8672Z" fill="#1877F2"/>
<path d="M33.3422 31.8047L34.4062 24.8672H27.75V20.3652C27.75 18.4673 28.6798 16.6172 31.6612 16.6172H34.6875V10.7109C34.6875 10.7109 31.941 10.2422 29.3152 10.2422C23.833 10.2422 20.25 13.5647 20.25 19.5797V24.8672H14.1562V31.8047H20.25V48.5755C21.4719 48.7673 22.7243 48.8672 24 48.8672C25.2757 48.8672 26.5281 48.7673 27.75 48.5755V31.8047H33.3422Z" fill="white"/>
</svg>
