<svg width="24" height="24" viewBox="0 0 24 24" fill="none" xmlns="http://www.w3.org/2000/svg">
<path d="M14.945 1.25C13.578 1.25 12.475 1.25 11.608 1.367C10.708 1.487 9.94996 1.747 9.34796 2.348C8.82396 2.873 8.55796 3.518 8.41896 4.276C8.28396 5.013 8.25796 5.914 8.25196 6.996C8.2509 7.19491 8.3289 7.3861 8.46881 7.5275C8.60871 7.6689 8.79905 7.74894 8.99796 7.75C9.19688 7.75106 9.38806 7.67306 9.52947 7.53316C9.67087 7.39326 9.7509 7.20291 9.75196 7.004C9.75796 5.911 9.78596 5.136 9.89396 4.547C9.99896 3.981 10.166 3.652 10.409 3.409C10.686 3.132 11.075 2.952 11.809 2.853C12.564 2.752 13.565 2.75 15 2.75H16C17.436 2.75 18.437 2.752 19.192 2.853C19.926 2.952 20.314 3.133 20.592 3.409C20.87 3.685 21.048 4.074 21.147 4.809C21.249 5.563 21.25 6.565 21.25 8V16C21.25 17.435 21.249 18.437 21.147 19.192C21.048 19.926 20.868 20.314 20.591 20.591C20.314 20.868 19.926 21.048 19.192 21.147C18.437 21.248 17.436 21.25 16 21.25H15C13.565 21.25 12.564 21.248 11.808 21.147C11.075 21.048 10.686 20.867 10.409 20.591C10.166 20.348 9.99896 20.019 9.89396 19.453C9.78596 18.864 9.75796 18.089 9.75196 16.996C9.75144 16.8975 9.73152 16.8001 9.69334 16.7093C9.65517 16.6185 9.59948 16.5361 9.52947 16.4668C9.45945 16.3976 9.37648 16.3428 9.28528 16.3056C9.19409 16.2684 9.09646 16.2495 8.99796 16.25C8.89947 16.2505 8.80205 16.2704 8.71126 16.3086C8.62046 16.3468 8.53808 16.4025 8.46881 16.4725C8.39953 16.5425 8.34473 16.6255 8.30752 16.7167C8.27032 16.8079 8.25144 16.9055 8.25196 17.004C8.25796 18.086 8.28396 18.987 8.41896 19.724C8.55896 20.482 8.82396 21.127 9.34896 21.652C9.94996 22.254 10.709 22.512 11.609 22.634C12.475 22.75 13.578 22.75 14.945 22.75H16.055C17.423 22.75 18.525 22.75 19.392 22.633C20.292 22.513 21.05 22.253 21.652 21.652C22.254 21.05 22.512 20.292 22.634 19.392C22.75 18.525 22.75 17.422 22.75 16.055V7.945C22.75 6.578 22.75 5.475 22.634 4.608C22.513 3.708 22.254 2.95 21.652 2.348C21.05 1.746 20.292 1.488 19.392 1.367C18.525 1.25 17.422 1.25 16.055 1.25H14.945Z" fill="black" fill-opacity="0.2"/>
<path d="M15.0006 11.25C15.1995 11.25 15.3902 11.329 15.5309 11.4697C15.6715 11.6103 15.7506 11.8011 15.7506 12C15.7506 12.1989 15.6715 12.3897 15.5309 12.5303C15.3902 12.671 15.1995 12.75 15.0006 12.75H4.02756L5.98856 14.43C6.13973 14.5594 6.2333 14.7436 6.24868 14.942C6.26405 15.1404 6.19998 15.3368 6.07056 15.488C5.94113 15.6392 5.75695 15.7327 5.55854 15.7481C5.36013 15.7635 5.16373 15.6994 5.01256 15.57L1.51256 12.57C1.43022 12.4996 1.36412 12.4122 1.31879 12.3138C1.27347 12.2154 1.25 12.1083 1.25 12C1.25 11.8917 1.27347 11.7846 1.31879 11.6862C1.36412 11.5878 1.43022 11.5004 1.51256 11.43L5.01256 8.43C5.08741 8.36591 5.17415 8.3172 5.26783 8.28664C5.36151 8.25607 5.4603 8.24426 5.55854 8.25188C5.65679 8.25949 5.75257 8.28638 5.84042 8.33101C5.92827 8.37565 6.00647 8.43714 6.07056 8.512C6.13464 8.58685 6.18336 8.67359 6.21392 8.76727C6.24448 8.86095 6.25629 8.95973 6.24868 9.05798C6.24106 9.15622 6.21417 9.25201 6.16954 9.33986C6.12491 9.42771 6.06341 9.50591 5.98856 9.57L4.02856 11.25H15.0006Z" fill="black" fill-opacity="0.2"/>
</svg>
