<svg width="24" height="24" viewBox="0 0 24 24" fill="none" xmlns="http://www.w3.org/2000/svg">
<path d="M21.839 12.0028C21.839 9.28135 20.7391 6.82635 18.9588 5.04038C18.0461 4.12574 16.9616 3.40044 15.7678 2.90616C14.5739 2.41188 13.2942 2.15836 12.002 2.16016C9.28055 2.16016 6.82555 3.26009 5.03958 5.04038C3.25929 6.82635 2.15936 9.28135 2.15936 12.0028C2.15936 14.7243 3.25929 17.1793 5.03958 18.9596C5.95297 19.8749 7.03832 20.6006 8.23321 21.0949C9.4281 21.5892 10.7089 21.8424 12.002 21.8398C14.7178 21.8398 17.1785 20.7399 18.9588 18.9596C19.8734 18.0469 20.5987 16.9624 21.093 15.7686C21.5873 14.5747 21.8408 13.295 21.839 12.0028ZM19.6392 4.36568C21.5895 6.31607 22.8029 9.01487 22.8029 12.0028C22.8029 14.9908 21.5895 17.6839 19.6392 19.64C18.6374 20.6444 17.4469 21.441 16.1363 21.984C14.8257 22.5269 13.4207 22.8055 12.002 22.8037C10.5834 22.8052 9.1785 22.5264 7.86791 21.9835C6.55732 21.4406 5.36686 20.6442 4.36489 19.64C2.40883 17.6839 1.20117 14.9851 1.20117 12.0028C1.20117 9.02054 2.40883 6.31607 4.36489 4.36568C5.36686 3.36146 6.55732 2.56503 7.86791 2.02212C9.1785 1.4792 10.5834 1.20048 12.002 1.20197C14.9843 1.20197 17.6831 2.40963 19.6392 4.36568Z" fill="#00000033"/>
<path d="M17.314 11.5209C17.4419 11.5209 17.5644 11.5717 17.6548 11.6621C17.7452 11.7524 17.796 11.875 17.796 12.0028C17.796 12.1306 17.7452 12.2532 17.6548 12.3436C17.5644 12.434 17.4419 12.4848 17.314 12.4848H6.68896C6.56114 12.4848 6.43856 12.434 6.34818 12.3436C6.25781 12.2532 6.20703 12.1306 6.20703 12.0028C6.20703 11.875 6.25781 11.7524 6.34818 11.6621C6.43856 11.5717 6.56114 11.5209 6.68896 11.5209H17.314Z" fill="#00000033"/>
<path d="M12.4777 17.3154C12.4649 17.4334 12.4088 17.5426 12.3204 17.6219C12.232 17.7012 12.1174 17.7451 11.9986 17.7451C11.8798 17.7451 11.7653 17.7012 11.6768 17.6219C11.5884 17.5426 11.5324 17.4334 11.5195 17.3154V6.69027C11.5195 6.56246 11.5703 6.43988 11.6607 6.3495C11.7511 6.25912 11.8736 6.20834 12.0015 6.20834C12.1293 6.20834 12.2519 6.25912 12.3422 6.3495C12.4326 6.43988 12.4834 6.56246 12.4834 6.69027L12.4777 17.3154Z" fill="#00000033"/>
</svg>
