<svg width="162" height="32" viewBox="0 0 162 32" fill="none" xmlns="http://www.w3.org/2000/svg">
<g clip-path="url(#clip0_121_3177)">
<path d="M161.2 12.4994C161.299 11.693 161.074 10.8801 160.574 10.2396C160.074 9.59904 159.34 9.18337 158.534 9.08399C157.728 8.98461 156.915 9.20966 156.274 9.70964C155.634 10.2096 155.218 10.9436 155.119 11.75L154.329 18.298C153.585 17.139 152.582 16.168 151.4 15.4609C150.094 14.7404 148.627 14.3638 147.136 14.3665C145.644 14.3692 144.178 14.751 142.875 15.4761C141.638 16.2177 140.633 17.2896 139.971 18.5714C139.269 19.8944 138.918 21.4417 138.92 23.2133C138.889 24.8058 139.25 26.3814 139.971 27.8016C140.627 29.0872 141.634 30.1605 142.875 30.8969C144.186 31.6447 145.674 32.0227 147.183 31.9904C148.662 32.0155 150.12 31.6375 151.4 30.8969C152.603 30.1765 153.617 29.1788 154.356 27.9871L154.463 28.8436C154.556 29.5836 154.916 30.2641 155.476 30.757C156.036 31.2499 156.757 31.5213 157.503 31.5201C157.935 31.5217 158.364 31.4315 158.759 31.2553C159.154 31.0791 159.508 30.8211 159.796 30.4981C160.084 30.1752 160.301 29.7948 160.431 29.382C160.561 28.9693 160.603 28.5336 160.552 28.1037L159.955 23.1177C159.926 22.8694 159.926 22.6185 159.955 22.3702L161.2 12.4994ZM153.188 25.3794L153.167 25.4023C152.643 26.0273 151.998 26.5392 151.27 26.9069C150.554 27.2653 149.763 27.45 148.963 27.446C148.235 27.4596 147.518 27.2731 146.89 26.9069C146.287 26.547 145.796 26.0259 145.473 25.4023C145.125 24.726 144.95 23.9739 144.963 23.2133C144.947 22.4426 145.123 21.6801 145.473 20.9937C145.803 20.3567 146.305 19.8251 146.921 19.4597C147.538 19.0942 148.246 18.9096 148.963 18.927C149.765 18.9236 150.557 19.1138 151.27 19.4814C151.996 19.8573 152.641 20.3732 153.167 20.9994L153.184 21.0185C153.693 21.6309 153.972 22.4019 153.973 23.1982C153.973 23.9946 153.696 24.7661 153.188 25.3794Z" fill="#FF4785"/>
<path d="M134.652 27.0178H126.132C125.776 27.0189 125.424 26.9424 125.1 26.7937C124.777 26.645 124.49 26.4276 124.259 26.1567C124.028 25.8857 123.859 25.5678 123.763 25.2249C123.668 24.882 123.648 24.5224 123.705 24.1711C124.049 22.0546 124.049 19.8964 123.705 17.7799C123.648 17.4285 123.667 17.0687 123.763 16.7255C123.858 16.3824 124.027 16.0642 124.258 15.7931C124.489 15.5219 124.776 15.3044 125.1 15.1555C125.423 15.0067 125.775 14.9302 126.132 14.9313H134.507C134.829 14.9313 135.148 14.8679 135.446 14.7446C135.743 14.6213 136.014 14.4406 136.242 14.2129C136.469 13.9851 136.65 13.7147 136.773 13.4171C136.897 13.1195 136.96 12.8005 136.96 12.4784C136.96 12.1563 136.897 11.8374 136.773 11.5398C136.65 11.2422 136.469 10.9718 136.242 10.744C136.014 10.5162 135.743 10.3356 135.446 10.2123C135.148 10.089 134.829 10.0256 134.507 10.0256H119.61C119.257 10.0257 118.908 10.1021 118.587 10.2496C118.266 10.397 117.981 10.6121 117.75 10.8801C117.52 11.148 117.351 11.4625 117.253 11.8021C117.156 12.1416 117.133 12.4982 117.186 12.8474L117.97 17.9845C118.272 19.9664 118.272 21.9827 117.97 23.9646L117.19 29.1017C117.136 29.4509 117.158 29.8077 117.255 30.1476C117.352 30.4875 117.521 30.8024 117.751 31.0708C117.981 31.3392 118.266 31.5547 118.587 31.7026C118.908 31.8504 119.257 31.9271 119.61 31.9274H134.652C134.98 31.9365 135.306 31.8799 135.612 31.7608C135.917 31.6416 136.196 31.4625 136.431 31.2339C136.666 31.0053 136.853 30.7319 136.98 30.4299C137.108 30.1279 137.174 29.8033 137.174 29.4754C137.174 29.1476 137.108 28.823 136.98 28.521C136.853 28.2189 136.666 27.9456 136.431 27.717C136.196 27.4884 135.917 27.3092 135.612 27.1901C135.306 27.071 134.98 27.0144 134.652 27.0235V27.0178Z" fill="#FF4785"/>
<path d="M127.223 19.2195C126.742 19.2195 126.28 19.4108 125.939 19.7514C125.599 20.0921 125.407 20.554 125.407 21.0357C125.407 21.5174 125.599 21.9794 125.939 22.32C126.28 22.6606 126.742 22.8519 127.223 22.8519H130.856C131.338 22.8519 131.8 22.6606 132.14 22.32C132.481 21.9794 132.672 21.5174 132.672 21.0357C132.672 20.554 132.481 20.0921 132.14 19.7514C131.8 19.4108 131.338 19.2195 130.856 19.2195H127.223Z" fill="#FF4785"/>
<path d="M32.1576 24.9071H40.9711C41.4285 24.9088 41.8802 24.8052 42.2911 24.6044C42.7021 24.4036 43.0614 24.1109 43.3412 23.7491C43.621 23.3872 43.8138 22.9658 43.9048 22.5175C43.9957 22.0693 43.9823 21.6061 43.8656 21.1638C43.694 20.5327 43.4642 19.919 43.1792 19.3303C42.4682 17.8174 41.3323 16.544 39.91 15.6654C38.4978 14.7987 36.7899 14.366 34.7863 14.3673C32.996 14.34 31.2232 14.7225 29.6034 15.4857C28.1445 16.1664 26.8982 17.2311 25.9977 18.5656C25.1096 19.9216 24.6518 21.5142 24.6843 23.1349C24.6503 24.7917 25.1298 26.4185 26.057 27.7921C27.0014 29.1501 28.2982 30.2249 29.808 30.9007C31.3935 31.6399 33.1989 32.0095 35.2242 32.0095C36.8271 32.0187 38.4236 31.8044 39.9674 31.3729C41.0133 31.0805 42.0218 30.668 42.9728 30.1436C43.2529 29.9871 43.4861 29.7584 43.6481 29.4814C43.8101 29.2044 43.8951 28.8892 43.8942 28.5682C43.8942 28.2815 43.8256 27.9989 43.6944 27.7439C43.5632 27.4889 43.373 27.2689 43.1397 27.1021C42.9064 26.9354 42.6367 26.8267 42.353 26.7851C42.0692 26.7435 41.7797 26.7702 41.5083 26.8629C41.2062 26.9649 40.8972 27.0573 40.5811 27.1401C39.3829 27.4592 38.1484 27.6211 36.9085 27.6219C35.5664 27.6219 34.4327 27.4269 33.5073 27.0369C32.8396 26.7577 32.2417 26.3347 31.7561 25.798C31.6866 25.7211 31.6411 25.6256 31.625 25.5232C31.6089 25.4207 31.6231 25.3159 31.6656 25.2213C31.7082 25.1268 31.7775 25.0468 31.8648 24.991C31.9522 24.9352 32.0539 24.906 32.1576 24.9071ZM31.2189 20.5482C31.5621 19.9408 32.0671 19.4404 32.6776 19.1028C33.3687 18.7353 34.1435 18.5541 34.9259 18.5771C35.6399 18.5573 36.3474 18.7178 36.983 19.0436C37.5622 19.3591 38.0426 19.829 38.371 20.401C38.3997 20.4488 38.4265 20.4966 38.4513 20.5463C38.4928 20.6253 38.5134 20.7136 38.5111 20.8029C38.5087 20.8921 38.4835 20.9793 38.4379 21.056C38.3922 21.1327 38.3276 21.1964 38.2503 21.2411C38.173 21.2857 38.0856 21.3098 37.9963 21.311H31.6796C31.59 21.3111 31.5017 21.2881 31.4236 21.2441C31.3454 21.2001 31.28 21.1366 31.2336 21.0598C31.1873 20.9831 31.1615 20.8956 31.159 20.8059C31.1564 20.7163 31.177 20.6275 31.2189 20.5482Z" fill="black"/>
<path d="M67.1159 23.5669C67.0854 23.3129 67.0854 23.0562 67.1159 22.8022L67.6894 18.319C67.7505 17.914 67.7299 17.5008 67.6289 17.1038C67.5279 16.7069 67.3485 16.3341 67.1012 16.0076C66.8539 15.681 66.5438 15.4072 66.1891 15.2023C65.8344 14.9975 65.4423 14.8656 65.0359 14.8146C64.6294 14.7636 64.2169 14.7944 63.8226 14.9052C63.4282 15.0161 63.0601 15.2047 62.7397 15.46C62.4194 15.7153 62.1534 16.0321 61.9574 16.3918C61.7614 16.7514 61.6393 17.1467 61.5984 17.5543L61.5162 18.2062C60.7783 17.0885 59.7981 16.1515 58.6484 15.4646C57.3427 14.7442 55.8753 14.3676 54.3841 14.3703C52.8928 14.373 51.4267 14.7548 50.1236 15.4799C48.8921 16.2224 47.8912 17.2928 47.233 18.5714C46.532 19.8943 46.1815 21.4416 46.1815 23.2132C46.151 24.8057 46.512 26.3813 47.233 27.8016C47.8889 29.0872 48.8958 30.1604 50.137 30.8968C51.4473 31.6447 52.936 32.0227 54.4443 31.9904C55.9234 32.0155 57.3813 31.6374 58.6618 30.8968C59.8133 30.2084 60.7912 29.2645 61.52 28.1381L61.6079 28.8397C61.7033 29.5799 62.0651 30.26 62.6256 30.7527C63.1862 31.2453 63.9071 31.5168 64.6535 31.5163C65.087 31.5163 65.5156 31.4242 65.9108 31.2461C66.306 31.0679 66.6589 30.8078 66.9459 30.4829C67.233 30.1581 67.4478 29.7759 67.5759 29.3618C67.7041 28.9476 67.7428 28.511 67.6894 28.0807L67.1159 23.5669ZM60.4245 25.3793L60.4035 25.4023C59.8799 26.0272 59.2346 26.5392 58.507 26.9069C57.7966 27.2624 57.0129 27.447 56.2185 27.446C55.4914 27.4596 54.7745 27.2731 54.1461 26.9069C53.543 26.547 53.0524 26.0259 52.7294 25.4023C52.3811 24.726 52.2057 23.9739 52.219 23.2132C52.2034 22.4426 52.3787 21.68 52.7294 20.9936C53.0587 20.3566 53.5605 19.8251 54.1774 19.4596C54.7944 19.0942 55.5017 18.9096 56.2185 18.9269C57.0211 18.9236 57.8126 19.1137 58.5261 19.4814C59.2522 19.8572 59.8968 20.3731 60.4226 20.9994L60.4398 21.0185C60.9487 21.6311 61.2272 22.4025 61.2272 23.1989C61.2272 23.9953 60.9487 24.7667 60.4398 25.3793H60.4245Z" fill="black"/>
<path d="M78.1547 19.3093C78.8665 18.9551 79.654 18.7799 80.4489 18.7989C81.5768 18.7989 82.5328 19.0665 83.3166 19.6018C83.7453 19.8938 84.1032 20.2778 84.3643 20.726C84.5762 21.0842 84.8785 21.3806 85.2408 21.5856C85.6031 21.7906 86.0128 21.897 86.429 21.8941H87.2377C89.2624 21.8941 90.4114 19.533 89.1247 17.9711L89.096 17.9367C88.1132 16.7827 86.8674 15.8817 85.4636 15.3098C83.8764 14.6557 82.173 14.3305 80.4565 14.3539C78.4173 14.3539 76.617 14.7286 75.0556 15.4781C73.5769 16.1598 72.3143 17.2353 71.406 18.5867C70.5163 19.9583 70.0588 21.5653 70.0926 23.1999C70.0604 24.8264 70.518 26.4251 71.406 27.7882C72.3118 29.1387 73.5754 30.2104 75.0556 30.8835C76.6119 31.6227 78.4122 31.9923 80.4565 31.9923C82.171 32.0175 83.8732 31.7003 85.4636 31.0594C86.8716 30.4942 88.1191 29.5915 89.096 28.4306L89.1247 28.3981C90.3999 26.8362 89.2528 24.4904 87.2358 24.4904H86.4157C86.002 24.49 85.5952 24.5962 85.2345 24.7988C84.8739 25.0014 84.5715 25.2935 84.3566 25.647C84.0918 26.0766 83.7426 26.448 83.33 26.7387C82.488 27.3177 81.4836 27.6136 80.4623 27.5837C79.6674 27.6026 78.8799 27.4274 78.1681 27.0732C77.5235 26.7412 76.9944 26.222 76.6501 25.5839C76.2693 24.853 76.0805 24.0372 76.1014 23.2133C76.074 22.3776 76.2596 21.5487 76.6405 20.8044C76.9835 20.1651 77.5111 19.6441 78.1547 19.3093Z" fill="black"/>
<path d="M111.852 18.0456C111.277 16.9068 110.378 15.9626 109.269 15.3308C108.149 14.6936 106.782 14.3749 105.167 14.3749C103.889 14.3617 102.63 14.6784 101.511 15.2945C100.547 15.8412 99.7151 16.593 99.0738 17.4969V12.0444C99.0839 11.645 99.0139 11.2476 98.868 10.8757C98.7222 10.5037 98.5033 10.1647 98.2244 9.87867C97.9455 9.59261 97.6121 9.36527 97.244 9.21004C96.8758 9.05482 96.4804 8.97485 96.0808 8.97485C95.6813 8.97485 95.2858 9.05482 94.9176 9.21004C94.5495 9.36527 94.2162 9.59261 93.9372 9.87867C93.6583 10.1647 93.4395 10.5037 93.2936 10.8757C93.1477 11.2476 93.0778 11.645 93.0879 12.0444V28.5396C93.1076 29.3203 93.4316 30.0623 93.9907 30.6075C94.5499 31.1527 95.2999 31.4578 96.0808 31.4578C96.8618 31.4578 97.6118 31.1527 98.1709 30.6075C98.73 30.0623 99.054 29.3203 99.0738 28.5396V23.5153C99.0517 22.7233 99.2168 21.9373 99.5555 21.2211C99.8613 20.5949 100.35 20.0762 100.957 19.7337C101.613 19.3715 102.353 19.19 103.102 19.208C104.29 19.208 105.2 19.5387 105.832 20.2002C106.464 20.8617 106.783 21.8176 106.788 23.0679V28.5434C106.808 29.3241 107.132 30.0662 107.691 30.6113C108.25 31.1565 109 31.4616 109.781 31.4616C110.562 31.4616 111.312 31.1565 111.871 30.6113C112.43 30.0662 112.754 29.3241 112.774 28.5434V22.1904C112.769 20.596 112.462 19.2144 111.852 18.0456Z" fill="black"/>
<path d="M19.1005 16.3556C18.9153 16.4066 18.7423 16.4944 18.5917 16.6137C18.4411 16.7329 18.3159 16.8812 18.2237 17.0497C18.1316 17.2183 18.0742 17.4036 18.055 17.5948C18.0358 17.7859 18.0553 17.979 18.1122 18.1625C18.1691 18.3459 18.2623 18.5161 18.3862 18.6629C18.5101 18.8097 18.6623 18.9301 18.8337 19.0169C19.005 19.1037 19.1921 19.1552 19.3838 19.1683C19.5754 19.1815 19.7678 19.1559 19.9494 19.0933C20.2543 18.9788 20.5802 18.9306 20.9053 18.9518C20.9837 19.5445 20.2304 21.657 17.7087 24.0697C17.5749 24.1978 17.443 24.3202 17.313 24.4387C17.1923 25.8558 16.9114 27.2546 16.4756 28.6084C17.6385 27.9124 18.7175 27.0848 19.6913 26.1422C21.2322 24.6624 22.4519 23.0221 23.144 21.506C24.3236 18.9097 23.555 17.5332 22.9911 16.9444C22.494 16.4282 21.3297 15.6635 19.1005 16.3556Z" fill="black"/>
<path d="M12.3419 11.9488C18.7299 11.9488 23.9084 10.2797 23.9084 8.22078C23.9084 6.16184 18.7299 4.49274 12.3419 4.49274C5.95389 4.49274 0.775391 6.16184 0.775391 8.22078C0.775391 10.2797 5.95389 11.9488 12.3419 11.9488Z" fill="black"/>
<path d="M22.083 4.73743C22.6068 2.28648 21.9798 0.340249 20.391 0.0381816C18.8482 -0.246679 16.8542 1.11836 15.3936 3.28827C17.2741 3.42396 19.1337 3.76894 20.9378 4.31683C21.3546 4.44683 21.7351 4.58831 22.083 4.73743Z" fill="black"/>
<path d="M3.75251 4.31114C5.49508 3.7812 7.2899 3.44147 9.1056 3.29788C7.65835 1.12414 5.64903 -0.248543 4.10237 0.0382296C2.49836 0.334561 1.87319 2.33241 2.42762 4.81777C2.86014 4.62596 3.30237 4.45685 3.75251 4.31114Z" fill="black"/>
<path d="M13.3785 13.2718C13.0344 13.2718 12.6903 13.2871 12.3423 13.2871C11.9944 13.2871 11.6502 13.2871 11.3061 13.2718C9.76135 14.394 8.61426 17.971 8.61426 22.2191C8.61426 27.3638 10.2833 31.5335 12.3423 31.5335C14.4013 31.5335 16.0703 27.3638 16.0703 22.2191C16.0703 17.971 14.9328 14.394 13.3785 13.2718Z" fill="black"/>
</g>
<defs>
<clipPath id="clip0_121_3177">
<rect width="160.449" height="32" fill="white" transform="translate(0.775391)"/>
</clipPath>
</defs>
</svg>
