<svg width="142" height="28" viewBox="0 0 142 28" fill="none" xmlns="http://www.w3.org/2000/svg">
<g clip-path="url(#clip0_454_18470)">
<path d="M141.175 10.937C141.262 10.2314 141.065 9.52007 140.627 8.95961C140.19 8.39915 139.547 8.03544 138.842 7.94848C138.136 7.86152 137.425 8.05844 136.864 8.49592C136.304 8.9334 135.94 9.57561 135.853 10.2813L135.162 16.0107C134.511 14.9967 133.634 14.147 132.6 13.5282C131.457 12.8979 130.173 12.5684 128.868 12.5707C127.563 12.573 126.281 12.9072 125.14 13.5416C124.058 14.1905 123.178 15.1284 122.599 16.25C121.985 17.4076 121.678 18.7614 121.679 20.3116C121.653 21.705 121.969 23.0837 122.599 24.3264C123.173 25.4513 124.054 26.3904 125.14 27.0348C126.287 27.6891 127.59 28.0199 128.909 27.9916C130.203 28.0135 131.479 27.6828 132.6 27.0348C133.652 26.4044 134.539 25.5314 135.186 24.4887L135.279 25.2381C135.361 25.8857 135.676 26.4811 136.166 26.9124C136.656 27.3437 137.287 27.5811 137.939 27.5801C138.318 27.5815 138.693 27.5025 139.039 27.3484C139.385 27.1942 139.694 26.9684 139.946 26.6859C140.198 26.4033 140.388 26.0704 140.502 25.7093C140.616 25.3481 140.652 24.9669 140.607 24.5907L140.086 20.228C140.06 20.0107 140.06 19.7911 140.086 19.5739L141.175 10.937ZM134.164 22.2069L134.145 22.227C133.687 22.7739 133.123 23.2218 132.486 23.5435C131.859 23.8572 131.167 24.0188 130.467 24.0153C129.83 24.0271 129.203 23.864 128.653 23.5435C128.126 23.2286 127.696 22.7727 127.414 22.227C127.109 21.6352 126.956 20.9772 126.967 20.3116C126.953 19.6373 127.107 18.9701 127.414 18.3694C127.702 17.8121 128.141 17.347 128.681 17.0272C129.221 16.7075 129.839 16.5459 130.467 16.5611C131.169 16.5581 131.862 16.7245 132.486 17.0462C133.121 17.3751 133.685 17.8265 134.145 18.3745L134.16 18.3912C134.606 18.927 134.85 19.6017 134.851 20.2985C134.851 20.9952 134.608 21.6703 134.164 22.2069Z" fill="#FF4785"/>
<path d="M117.946 23.6405H110.49C110.178 23.6415 109.87 23.5745 109.587 23.4444C109.304 23.3143 109.053 23.1241 108.851 22.887C108.649 22.65 108.501 22.3718 108.418 22.0717C108.334 21.7717 108.317 21.4571 108.367 21.1497C108.668 19.2977 108.668 17.4094 108.367 15.5574C108.316 15.2499 108.333 14.935 108.417 14.6348C108.5 14.3346 108.648 14.0561 108.85 13.8189C109.053 13.5816 109.304 13.3913 109.587 13.2611C109.87 13.1308 110.178 13.0639 110.49 13.0648H117.819C118.1 13.0648 118.379 13.0093 118.64 12.9015C118.9 12.7936 119.137 12.6355 119.336 12.4362C119.535 12.2369 119.694 12.0003 119.801 11.7399C119.909 11.4795 119.965 11.2004 119.965 10.9186C119.965 10.6367 119.909 10.3577 119.801 10.0973C119.694 9.83686 119.535 9.60026 119.336 9.40096C119.137 9.20166 118.9 9.04357 118.64 8.93571C118.379 8.82785 118.1 8.77234 117.819 8.77234H104.784C104.475 8.77244 104.169 8.83929 103.888 8.96833C103.608 9.09738 103.358 9.28556 103.156 9.52001C102.955 9.75447 102.807 10.0297 102.721 10.3268C102.636 10.6239 102.616 10.9359 102.663 11.2415L103.348 15.7364C103.613 17.4706 103.613 19.2348 103.348 20.969L102.666 25.4639C102.619 25.7695 102.638 26.0817 102.723 26.3791C102.807 26.6765 102.955 26.9521 103.157 27.1869C103.358 27.4218 103.607 27.6104 103.888 27.7397C104.169 27.8691 104.475 27.9362 104.784 27.9364H117.946C118.232 27.9444 118.518 27.8948 118.785 27.7906C119.053 27.6864 119.296 27.5297 119.502 27.3296C119.708 27.1296 119.871 26.8904 119.983 26.6261C120.094 26.3619 120.152 26.0779 120.152 25.791C120.152 25.5041 120.094 25.2201 119.983 24.9558C119.871 24.6915 119.708 24.4523 119.502 24.2523C119.296 24.0523 119.053 23.8956 118.785 23.7913C118.518 23.6871 118.232 23.6376 117.946 23.6456V23.6405Z" fill="#FF4785"/>
<path d="M111.445 16.817C111.023 16.817 110.619 16.9844 110.321 17.2825C110.023 17.5805 109.855 17.9847 109.855 18.4062C109.855 18.8277 110.023 19.2319 110.321 19.5299C110.619 19.828 111.023 19.9954 111.445 19.9954H114.623C115.045 19.9954 115.449 19.828 115.747 19.5299C116.045 19.2319 116.212 18.8277 116.212 18.4062C116.212 17.9847 116.045 17.5805 115.747 17.2825C115.449 16.9844 115.045 16.817 114.623 16.817H111.445Z" fill="#FF4785"/>
<path d="M28.2628 21.7938H35.9746C36.3748 21.7952 36.77 21.7046 37.1296 21.5289C37.4892 21.3531 37.8036 21.0971 38.0484 20.7804C38.2933 20.4638 38.462 20.0951 38.5415 19.7029C38.6211 19.3106 38.6094 18.9053 38.5073 18.5183C38.3571 17.9662 38.1561 17.4291 37.9067 16.9141C37.2845 15.5902 36.2906 14.476 35.0461 13.7072C33.8105 12.9489 32.3161 12.5703 30.5629 12.5714C28.9964 12.5475 27.4452 12.8822 26.0279 13.55C24.7513 14.1457 23.6608 15.0772 22.8729 16.2449C22.0958 17.4314 21.6952 18.825 21.7236 20.243C21.6939 21.6928 22.1135 23.1162 22.9247 24.3181C23.7511 25.5064 24.8858 26.4468 26.2069 27.0381C27.5942 27.6849 29.1739 28.0084 30.946 28.0084C32.3486 28.0164 33.7455 27.8289 35.0963 27.4513C36.0115 27.1955 36.8939 26.8345 37.726 26.3757C37.9712 26.2387 38.1752 26.0387 38.317 25.7963C38.4587 25.5539 38.5331 25.278 38.5323 24.9972C38.5323 24.7463 38.4723 24.499 38.3575 24.2759C38.2427 24.0528 38.0763 23.8603 37.8721 23.7144C37.668 23.5685 37.432 23.4734 37.1837 23.437C36.9355 23.4006 36.6821 23.4239 36.4446 23.5051C36.1803 23.5943 35.9099 23.6751 35.6333 23.7476C34.5849 24.0268 33.5047 24.1685 32.4198 24.1692C31.2455 24.1692 30.2535 23.9986 29.4438 23.6573C28.8596 23.413 28.3364 23.0429 27.9115 22.5733C27.8507 22.506 27.8108 22.4224 27.7967 22.3328C27.7827 22.2432 27.795 22.1514 27.8323 22.0687C27.8696 21.986 27.9302 21.9159 28.0066 21.8671C28.083 21.8183 28.1721 21.7928 28.2628 21.7938ZM27.4414 17.9797C27.7417 17.4482 28.1836 17.0104 28.7178 16.715C29.3225 16.3934 30.0005 16.2349 30.6851 16.255C31.3098 16.2377 31.9288 16.3781 32.485 16.6632C32.9918 16.9392 33.4122 17.3504 33.6995 17.8509C33.7246 17.8927 33.748 17.9345 33.7698 17.978C33.8061 18.0471 33.8241 18.1245 33.8221 18.2025C33.82 18.2806 33.7979 18.3569 33.758 18.424C33.7181 18.4911 33.6616 18.5469 33.5939 18.586C33.5263 18.625 33.4497 18.6461 33.3716 18.6471H27.8446C27.7661 18.6473 27.6889 18.6271 27.6205 18.5886C27.5521 18.5501 27.4949 18.4946 27.4543 18.4274C27.4137 18.3602 27.3912 18.2837 27.389 18.2052C27.3867 18.1268 27.4048 18.0491 27.4414 17.9797Z" fill="black"/>
<path d="M58.8509 20.621C58.8243 20.3988 58.8243 20.1741 58.8509 19.9519L59.3528 16.0291C59.4062 15.6747 59.3882 15.3132 59.2998 14.9658C59.2114 14.6185 59.0544 14.2923 58.8381 14.0066C58.6217 13.7208 58.3503 13.4813 58.04 13.302C57.7296 13.1227 57.3865 13.0074 57.0309 12.9627C56.6753 12.9181 56.3143 12.945 55.9693 13.042C55.6242 13.139 55.3021 13.3041 55.0218 13.5274C54.7415 13.7508 54.5087 14.028 54.3372 14.3428C54.1657 14.6575 54.0589 15.0033 54.0231 15.3599L53.9512 15.9304C53.3055 14.9524 52.4479 14.1325 51.4419 13.5315C50.2994 12.9012 49.0154 12.5716 47.7106 12.574C46.4057 12.5763 45.1229 12.9104 43.9827 13.5449C42.9051 14.1946 42.0293 15.1311 41.4534 16.2499C40.84 17.4075 40.5333 18.7614 40.5333 20.3115C40.5066 21.705 40.8225 23.0836 41.4534 24.3264C42.0273 25.4512 42.9084 26.3903 43.9944 27.0347C45.1409 27.6891 46.4435 28.0198 47.7633 27.9916C49.0575 28.0135 50.3332 27.6827 51.4536 27.0347C52.4612 26.4323 53.3169 25.6064 53.9545 24.6208L54.0315 25.2347C54.1149 25.8824 54.4314 26.4775 54.922 26.9085C55.4125 27.3396 56.0433 27.5772 56.6963 27.5767C57.0756 27.5767 57.4506 27.4961 57.7965 27.3403C58.1423 27.1844 58.451 26.9568 58.7022 26.6725C58.9534 26.3883 59.1413 26.0539 59.2535 25.6915C59.3656 25.3291 59.3995 24.9471 59.3528 24.5706L58.8509 20.621ZM52.996 22.2069L52.9776 22.227C52.5194 22.7738 51.9548 23.2217 51.3181 23.5435C50.6965 23.8546 50.0108 24.0161 49.3157 24.0152C48.6795 24.0271 48.0522 23.8639 47.5024 23.5435C46.9747 23.2286 46.5454 22.7726 46.2628 22.227C45.958 21.6352 45.8045 20.9771 45.8161 20.3115C45.8025 19.6372 45.9559 18.97 46.2628 18.3694C46.5509 17.812 46.9899 17.3469 47.5298 17.0272C48.0696 16.7074 48.6885 16.5459 49.3157 16.561C50.018 16.5581 50.7106 16.7245 51.3348 17.0462C51.9702 17.375 52.5342 17.8265 52.9943 18.3744L53.0093 18.3911C53.4546 18.9272 53.6983 19.6021 53.6983 20.299C53.6983 20.9959 53.4546 21.6708 53.0093 22.2069H52.996Z" fill="black"/>
<path d="M68.51 16.8956C69.1329 16.5857 69.8219 16.4324 70.5174 16.449C71.5044 16.449 72.3408 16.6832 73.0267 17.1516C73.4018 17.407 73.715 17.7431 73.9434 18.1352C74.1289 18.4487 74.3933 18.708 74.7103 18.8874C75.0273 19.0667 75.3858 19.1598 75.75 19.1573H76.4577C78.2292 19.1573 79.2346 17.0914 78.1088 15.7246L78.0837 15.6945C77.2237 14.6848 76.1336 13.8965 74.9053 13.396C73.5165 12.8237 72.026 12.5391 70.5241 12.5596C68.7397 12.5596 67.1645 12.8875 65.7983 13.5433C64.5045 14.1398 63.3997 15.0808 62.6049 16.2633C61.8264 17.4635 61.4261 18.8696 61.4556 20.2999C61.4274 21.7231 61.8279 23.1219 62.6049 24.3147C63.3974 25.4963 64.5031 26.434 65.7983 27.023C67.16 27.6698 68.7353 27.9933 70.5241 27.9933C72.0242 28.0153 73.5137 27.7377 74.9053 27.1769C76.1373 26.6824 77.2288 25.8925 78.0837 24.8768L78.1088 24.8483C79.2245 23.4816 78.2208 21.429 76.456 21.429H75.7383C75.3764 21.4287 75.0204 21.5216 74.7049 21.6989C74.3893 21.8762 74.1247 22.1318 73.9367 22.4411C73.705 22.817 73.3994 23.142 73.0384 23.3963C72.3017 23.9029 71.4228 24.1619 70.5291 24.1357C69.8336 24.1523 69.1446 23.9989 68.5217 23.689C67.9577 23.3985 67.4947 22.9442 67.1935 22.3859C66.8603 21.7463 66.6951 21.0325 66.7134 20.3116C66.6894 19.5804 66.8518 18.855 67.1851 18.2038C67.4852 17.6445 67.9469 17.1886 68.51 16.8956Z" fill="black"/>
<path d="M97.9954 15.7899C97.4916 14.7934 96.7056 13.9673 95.7354 13.4145C94.7552 12.8569 93.5585 12.5781 92.1455 12.5781C91.0279 12.5665 89.9262 12.8437 88.947 13.3827C88.1035 13.8611 87.3753 14.5189 86.8142 15.3098V10.5389C86.823 10.1894 86.7618 9.8417 86.6342 9.51624C86.5065 9.19078 86.315 8.89416 86.071 8.64386C85.8269 8.39356 85.5353 8.19464 85.2131 8.05882C84.891 7.923 84.5449 7.85303 84.1954 7.85303C83.8458 7.85303 83.4997 7.923 83.1776 8.05882C82.8554 8.19464 82.5638 8.39356 82.3197 8.64386C82.0757 8.89416 81.8842 9.19078 81.7565 9.51624C81.6289 9.8417 81.5677 10.1894 81.5765 10.5389V24.9722C81.5938 25.6553 81.8773 26.3046 82.3665 26.7816C82.8558 27.2586 83.512 27.5256 84.1954 27.5256C84.8787 27.5256 85.5349 27.2586 86.0242 26.7816C86.5134 26.3046 86.7969 25.6553 86.8142 24.9722V20.5759C86.7949 19.883 86.9393 19.1952 87.2357 18.5685C87.5033 18.0205 87.9308 17.5667 88.4619 17.2671C89.0358 16.9501 89.6835 16.7913 90.3389 16.807C91.3782 16.807 92.1745 17.0964 92.7277 17.6752C93.2808 18.254 93.5596 19.0904 93.5641 20.1845V24.9755C93.5814 25.6586 93.8648 26.3079 94.3541 26.7849C94.8433 27.262 95.4996 27.529 96.1829 27.529C96.8662 27.529 97.5225 27.262 98.0118 26.7849C98.501 26.3079 98.7845 25.6586 98.8018 24.9755V19.4167C98.7973 18.0215 98.5285 16.8126 97.9954 15.7899Z" fill="black"/>
<path d="M16.8373 14.3111C16.6753 14.3558 16.5239 14.4326 16.3921 14.537C16.2603 14.6413 16.1508 14.7711 16.0702 14.9185C15.9895 15.066 15.9393 15.2282 15.9225 15.3955C15.9058 15.5627 15.9228 15.7316 15.9725 15.8922C16.0223 16.0527 16.1039 16.2016 16.2123 16.3301C16.3208 16.4585 16.4539 16.5638 16.6039 16.6398C16.7538 16.7158 16.9175 16.7608 17.0852 16.7723C17.2529 16.7838 17.4212 16.7615 17.5801 16.7067C17.8469 16.6065 18.1321 16.5643 18.4165 16.5829C18.4851 17.1014 17.826 18.9499 15.6195 21.0611C15.5024 21.1731 15.387 21.2802 15.2732 21.3839C15.1676 22.6239 14.9218 23.8478 14.5405 25.0324C15.5581 24.4234 16.5022 23.6993 17.3542 22.8744C18.7026 21.5796 19.7698 20.1443 20.3754 18.8178C21.4075 16.5461 20.7351 15.3416 20.2416 14.8264C19.8066 14.3747 18.7879 13.7056 16.8373 14.3111Z" fill="black"/>
<path d="M10.9239 10.4552C16.5134 10.4552 21.0446 8.99476 21.0446 7.19319C21.0446 5.39162 16.5134 3.93115 10.9239 3.93115C5.33441 3.93115 0.803223 5.39162 0.803223 7.19319C0.803223 8.99476 5.33441 10.4552 10.9239 10.4552Z" fill="black"/>
<path d="M19.447 4.14522C19.9054 2.00064 19.3567 0.297687 17.9666 0.0333784C16.6166 -0.215875 14.8718 0.978533 13.5938 2.87721C15.2393 2.99593 16.8664 3.29779 18.445 3.77719C18.8097 3.89095 19.1426 4.01474 19.447 4.14522Z" fill="black"/>
<path d="M3.40784 3.77219C4.93259 3.30849 6.50305 3.01122 8.09179 2.88558C6.82545 0.983563 5.06729 -0.217536 3.71397 0.0333899C2.31045 0.29268 1.76343 2.0408 2.24856 4.21549C2.62701 4.04766 3.01396 3.89969 3.40784 3.77219Z" fill="black"/>
<path d="M11.8308 11.6128C11.5297 11.6128 11.2286 11.6262 10.9241 11.6262C10.6197 11.6262 10.3186 11.6262 10.0175 11.6128C8.66581 12.5948 7.66211 15.7246 7.66211 19.4417C7.66211 23.9433 9.1225 27.5918 10.9241 27.5918C12.7258 27.5918 14.1862 23.9433 14.1862 19.4417C14.1862 15.7246 13.1908 12.5948 11.8308 11.6128Z" fill="black"/>
</g>
<defs>
<clipPath id="clip0_454_18470">
<rect width="140.393" height="28" fill="white" transform="translate(0.803223)"/>
</clipPath>
</defs>
</svg>
