<svg width="64" height="64" viewBox="0 0 64 64" fill="none" xmlns="http://www.w3.org/2000/svg">
<rect width="64" height="64" rx="16" fill="#FF4785"/>
<path d="M32.4997 17.0017C32.1031 17.0037 31.7232 17.1623 31.4429 17.443C31.1626 17.7236 31.0045 18.1037 31.003 18.5003V26.498C31.003 27.32 31.6777 28.0003 32.4997 28.0003H32.9986V30.4987C32.9985 30.5944 33.0258 30.6882 33.0773 30.7689C33.1288 30.8496 33.2024 30.9138 33.2893 30.954C33.3762 30.9942 33.4728 31.0086 33.5677 30.9956C33.6625 30.9825 33.7516 30.9426 33.8245 30.8804L37.1845 28.0003H45.4997C45.8974 27.9979 46.2781 27.8388 46.5593 27.5576C46.8405 27.2764 46.9996 26.8957 47.0021 26.498V18.5003C46.9996 18.103 46.8404 17.7227 46.559 17.4421C46.2777 17.1614 45.897 17.0032 45.4997 17.0017H32.4997ZM18.5001 17.9976C18.1027 18.0001 17.7224 18.1593 17.4418 18.4406C17.1612 18.722 17.003 19.1027 17.0015 19.5V35.501C17.0015 36.323 17.678 36.9996 18.5001 36.9996H43.5003C43.8973 36.9976 44.2775 36.8391 44.5584 36.5586C44.8393 36.278 44.9983 35.898 45.0008 35.501V29.0001H43.0013V34.4994C43.0011 34.5651 42.9879 34.6302 42.9625 34.6909C42.9371 34.7515 42.9 34.8066 42.8533 34.8529C42.8067 34.8993 42.7513 34.936 42.6905 34.9609C42.6296 34.9858 42.5644 34.9985 42.4987 34.9983H19.4998C19.3673 34.9988 19.24 34.9468 19.1458 34.8536C19.0516 34.7605 18.9981 34.6338 18.9971 34.5013V20.4978C18.9971 20.4318 19.0102 20.3663 19.0356 20.3053C19.061 20.2443 19.0982 20.1889 19.1451 20.1424C19.192 20.0958 19.2477 20.059 19.3089 20.0341C19.3701 20.0091 19.4356 19.9965 19.5017 19.997H30.0014V18.4984C30.0014 18.3208 30.0392 18.1526 30.0959 17.9957L18.5001 17.9976ZM37.0201 19.5C37.1052 19.5019 37.1902 19.5265 37.2658 19.5756L41.2665 22.0777C41.3384 22.1228 41.3976 22.1853 41.4386 22.2595C41.4797 22.3338 41.5012 22.4172 41.5012 22.502C41.5012 22.5868 41.4797 22.6702 41.4386 22.7444C41.3976 22.8186 41.3384 22.8812 41.2665 22.9262L37.2658 25.4246C37.19 25.4717 37.1029 25.4978 37.0136 25.5C36.9243 25.5022 36.8361 25.4805 36.758 25.4371C36.68 25.3938 36.6149 25.3303 36.5696 25.2533C36.5243 25.1763 36.5004 25.0887 36.5004 24.9993V19.9989C36.4993 19.9315 36.5121 19.8645 36.5379 19.8022C36.5638 19.7399 36.6022 19.6836 36.6508 19.6368C36.6994 19.59 36.7571 19.5537 36.8203 19.5302C36.8835 19.5067 36.9509 19.4964 37.0182 19.5H37.0201ZM25.9988 22.0002C25.2032 22.0012 24.4405 22.3177 23.8779 22.8803C23.3153 23.4429 22.9988 24.2056 22.9978 25.0012V26.498C22.9959 26.7776 23.2208 27.0025 23.4986 27.0025V27.4996C23.4986 28.384 23.886 29.1777 24.4983 29.7295V31.0032H23.9975C22.3439 31.0032 20.9965 32.345 20.9965 33.9986H31.9989C31.9989 32.345 30.6515 31.0032 28.9998 31.0032H28.499V29.7295C29.1094 29.1796 29.4968 28.384 29.4968 27.4996V27.0025C29.5631 27.0028 29.6287 26.9899 29.6899 26.9646C29.7512 26.9393 29.8068 26.9021 29.8535 26.8552C29.9003 26.8083 29.9372 26.7525 29.9623 26.6912C29.9874 26.6299 30 26.5642 29.9995 26.498V25.0012C29.9985 24.2056 29.682 23.4429 29.1194 22.8803C28.5569 22.3177 27.7941 22.0012 26.9985 22.0002H25.9988ZM27.9264 26.1351L28.4971 26.7039V27.4996C28.4971 28.6164 27.6165 29.499 26.4996 29.499C26.2363 29.5012 25.9752 29.4511 25.7315 29.3514C25.4878 29.2518 25.2664 29.1046 25.0801 28.9185C24.8938 28.7324 24.7465 28.5111 24.6466 28.2675C24.5467 28.0239 24.4963 27.7628 24.4983 27.4996V27.0025H24.9972C26.2728 27.0025 27.5919 26.3487 27.9264 26.1332V26.1351ZM25.498 30.3248C26.1445 30.5554 26.8509 30.5554 27.4974 30.3248V31.4096C27.4974 31.4096 27.3462 32.0011 26.4977 32.0011C25.6511 32.0011 25.498 31.4096 25.498 31.4096V30.3248ZM21.503 37.9974C20.1272 37.9974 19.0009 39.1218 19.0009 40.4976V41.0003C19.0009 41.212 19.033 41.4142 19.084 41.6107C19.3841 41.5372 19.6917 41.4991 20.0006 41.4973H23.0016C23.3172 41.4973 23.6252 41.5389 23.9162 41.6107C23.9673 41.4142 24.0013 41.212 24.0013 41.0003V40.4976C24.0013 39.1218 22.8787 37.9974 21.503 37.9974ZM31.997 37.9974C30.6194 37.9974 29.4949 39.1218 29.4949 40.4976V41.0003C29.4949 41.212 29.529 41.416 29.58 41.6107C29.8729 41.5389 30.1809 41.4973 30.4984 41.4973H33.4994C33.815 41.4973 34.1193 41.5389 34.4122 41.6107C34.4613 41.4142 34.4954 41.212 34.4954 41.0003V40.4976C34.4954 39.1218 33.3728 37.9974 31.997 37.9974ZM42.4968 37.9974C41.121 37.9974 39.9985 39.1218 39.9985 40.4976V41.0003C39.9985 41.212 40.0325 41.4142 40.0816 41.6107C40.3764 41.537 40.6845 41.4973 41.0019 41.4973H44.0029C44.3166 41.4973 44.6228 41.5389 44.9157 41.6107C44.9649 41.4142 44.9989 41.212 44.9989 41.0003V40.4976C44.9989 39.1218 43.8744 37.9974 42.4968 37.9974ZM20.0025 42.5008C19.2072 42.5018 18.4447 42.818 17.8822 43.3802C17.3197 43.9424 17.003 44.7046 17.0015 45.4999V46.5015C17.0015 46.5674 17.0145 46.6327 17.0398 46.6936C17.0651 46.7545 17.1021 46.8098 17.1488 46.8563C17.1955 46.9028 17.2509 46.9397 17.3119 46.9647C17.3729 46.9898 17.4382 47.0026 17.5042 47.0023H25.5018C25.5679 47.0026 25.6334 46.9897 25.6945 46.9645C25.7556 46.9394 25.8111 46.9024 25.8578 46.8556C25.9045 46.8089 25.9415 46.7534 25.9667 46.6923C25.9919 46.6312 26.0047 46.5657 26.0045 46.4996V45.498C26.003 44.7027 25.6863 43.9405 25.1237 43.3783C24.5612 42.8161 23.7988 42.4999 23.0035 42.4989L20.0025 42.5008ZM30.5003 42.5008C29.7047 42.5018 28.942 42.8183 28.3794 43.3809C27.8168 43.9435 27.5003 44.7062 27.4993 45.5018V46.5034C27.4993 46.5693 27.5123 46.6346 27.5376 46.6955C27.5629 46.7564 27.6 46.8117 27.6467 46.8582C27.6934 46.9047 27.7488 46.9416 27.8098 46.9666C27.8707 46.9917 27.9361 47.0044 28.002 47.0042H35.9996C36.0656 47.0042 36.1308 46.9912 36.1917 46.9659C36.2526 46.9406 36.3079 46.9035 36.3544 46.8568C36.4009 46.8101 36.4378 46.7547 36.4629 46.6937C36.4879 46.6328 36.5007 46.5674 36.5004 46.5015V45.4999C36.4989 44.705 36.1825 43.943 35.6204 43.3809C35.0582 42.8188 34.2963 42.5023 33.5013 42.5008H30.5003ZM41.0038 42.5008C40.2082 42.5018 39.4455 42.8183 38.8829 43.3809C38.3203 43.9435 38.0038 44.7062 38.0028 45.5018V46.5034C38.0028 46.5693 38.0158 46.6346 38.0411 46.6955C38.0664 46.7564 38.1035 46.8117 38.1502 46.8582C38.1969 46.9047 38.2523 46.9416 38.3133 46.9666C38.3743 46.9917 38.4396 47.0044 38.5055 47.0042H46.505C46.6375 47.0032 46.7642 46.9497 46.8574 46.8555C46.9505 46.7613 47.0026 46.634 47.0021 46.5015V45.4999C47.0021 43.8482 45.6603 42.5008 44.0048 42.5008H41.0038Z" fill="white"/>
</svg>
