<svg width="64" height="64" viewBox="0 0 64 64" fill="none" xmlns="http://www.w3.org/2000/svg">
<rect width="64" height="64" rx="16" fill="#FF4785"/>
<g clip-path="url(#clip0_91_4343)">
<path d="M47.4819 19.844L39.9819 16.094C39.9729 16.0896 39.9631 16.0909 39.9541 16.0867C39.365 15.8128 38.6497 16.2158 38.6306 16.9048C38.6304 16.9146 38.625 16.9229 38.625 16.9326V27.2451H26.4375C24.8867 27.2451 23.625 28.5068 23.625 30.0576C23.625 31.6086 24.8867 32.8701 26.4375 32.8701H45.1875C45.7056 32.8701 46.125 32.4509 46.125 31.9326C46.125 31.4145 45.7056 30.9951 45.1875 30.9951H44.25C43.7327 30.9951 43.3125 30.5749 43.3125 30.0576C43.3125 29.5405 43.7327 29.1201 44.25 29.1201H45.1875C45.7056 29.1201 46.125 28.7009 46.125 28.1826C46.125 27.6645 45.7056 27.2451 45.1875 27.2451H40.5V25.0122L47.4819 21.5213C47.6376 21.4434 47.7685 21.3237 47.8601 21.1755C47.9516 21.0274 48 20.8567 48 20.6826C48 20.5085 47.9515 20.3379 47.86 20.1898C47.7685 20.0417 47.6376 19.9219 47.4819 19.844ZM36.625 44.2451H37.5625C38.0806 44.2451 38.5 43.8259 38.5 43.3076C38.5 42.7895 38.0806 42.3701 37.5625 42.3701H18.8125C17.2617 42.3701 16 43.6318 16 45.1826C16 46.7336 17.2617 47.9951 18.8125 47.9951H37.5625C38.0806 47.9951 38.5 47.5759 38.5 47.0576C38.5 46.5395 38.0806 46.1201 37.5625 46.1201H36.625C36.1077 46.1201 35.6875 45.6999 35.6875 45.1826C35.6875 44.6655 36.1077 44.2451 36.625 44.2451ZM40.375 36.7451H41.3125C41.8306 36.7451 42.25 36.3259 42.25 35.8076C42.25 35.2895 41.8306 34.8701 41.3125 34.8701H22.5625C21.0117 34.8701 19.75 36.1318 19.75 37.6826C19.75 39.2336 21.0118 40.4951 22.5625 40.4951H41.3125C41.8306 40.4951 42.25 40.0759 42.25 39.5576C42.25 39.0395 41.8306 38.6201 41.3125 38.6201H40.375C39.8577 38.6201 39.4375 38.1999 39.4375 37.6826C39.4375 37.1655 39.8577 36.7451 40.375 36.7451Z" fill="white"/>
</g>
<defs>
<clipPath id="clip0_91_4343">
<rect width="32" height="32" fill="white" transform="translate(16 16)"/>
</clipPath>
</defs>
</svg>
