<svg width="99" height="81" viewBox="0 0 99 81" fill="none" xmlns="http://www.w3.org/2000/svg">
<path fill-rule="evenodd" clip-rule="evenodd" d="M2.07757 0.124284C-0.750815 0.934747 -0.66234 15.679 2.16605 15.4296C4.28734 15.2737 4.58193 14.4321 4.49354 9.16405C4.37569 0.623029 4.11047 -0.436805 2.07757 0.124284ZM1.69462 22.1627C0.604513 23.0043 1.22325 33.0416 2.60798 36.5952C3.52131 38.9642 4.81766 39.4318 5.84884 37.7485C6.64433 36.4393 6.17284 27.7113 5.02381 22.942C4.69972 21.6328 2.90258 21.2276 1.69462 22.1627ZM4.75868 45.9155C3.25609 47.8481 5.81941 58.8517 7.79339 58.8517C9.23705 58.8517 9.47266 58.3841 9.47266 55.7969C9.47266 48.6274 6.87997 43.2036 4.75868 45.9155ZM74.0543 51.8693C71.0786 53.2408 82.4216 57.2931 89.2569 57.2931C91.4076 57.2931 90.5532 57.7607 86.841 58.6335C82.3332 59.6622 75.1739 62.2806 74.7319 63.0287C73.6713 64.8678 76.4997 64.7743 82.0975 62.8105C88.1962 60.6597 88.0784 60.535 83.9242 64.7743C78.5031 70.2605 77.6192 72.2867 80.5655 72.2555C82.127 72.2555 83.7179 71.0086 89.1979 65.616C91.4371 63.4028 94.1771 60.8779 95.3261 59.9427C100.57 55.7034 100.57 55.641 92.9102 55.1111C86.6347 54.6747 83.0108 54.0513 79.8584 52.8668C77.4719 51.9628 74.8498 51.4952 74.0543 51.8693ZM68.4859 64.1197C67.4252 64.4938 62.4756 66.9252 58.8812 68.3591C54.4913 70.1047 53.519 71.3827 56.4063 71.5697C58.7633 71.7256 71.6678 66.4576 72.1687 65.086C72.5517 64.0262 70.4009 63.4651 68.4859 64.1197ZM10.2387 65.4913C7.32193 67.7668 14.8642 79.1133 19.3131 79.1133C19.5193 79.1133 20.7273 79.3938 21.9647 79.7367C27.1795 81.1706 28.7411 79.0821 23.6736 77.43C19.1364 75.9338 17.398 74.157 14.3339 67.7356C13.0376 65.0237 11.7413 64.3067 10.2387 65.4913ZM47.6265 72.2243C46.2713 72.5672 42.7947 74.3752 40.4082 75.1856C34.3685 77.243 32.4239 79.0821 36.254 79.0821C38.67 79.0821 50.2781 74.4687 50.6022 73.3465C50.9558 72.1932 49.63 71.6944 47.6265 72.2243Z" fill="white"/>
</svg>
