<svg width="162" height="32" viewBox="0 0 162 32" fill="none" xmlns="http://www.w3.org/2000/svg">
<g clip-path="url(#clip0_57_1250)">
<path d="M161.2 12.4995C161.299 11.693 161.074 10.8801 160.574 10.2396C160.074 9.59906 159.34 9.18338 158.534 9.084C157.727 8.98462 156.914 9.20967 156.274 9.70965C155.633 10.2096 155.218 10.9436 155.118 11.75L154.329 18.298C153.584 17.1391 152.582 16.168 151.4 15.4609C150.094 14.7404 148.627 14.3639 147.135 14.3665C145.644 14.3692 144.178 14.7511 142.875 15.4762C141.638 16.2178 140.632 17.2897 139.971 18.5714C139.269 19.8944 138.918 21.4417 138.92 23.2133C138.889 24.8058 139.25 26.3814 139.971 27.8017C140.627 29.0872 141.634 30.1605 142.875 30.8969C144.185 31.6447 145.674 32.0227 147.182 31.9904C148.661 32.0155 150.119 31.6375 151.4 30.8969C152.603 30.1765 153.616 29.1788 154.356 27.9871L154.463 28.8436C154.556 29.5836 154.916 30.2641 155.476 30.757C156.036 31.2499 156.756 31.5213 157.502 31.5201C157.935 31.5217 158.363 31.4315 158.759 31.2553C159.154 31.0791 159.508 30.8211 159.796 30.4981C160.084 30.1752 160.301 29.7948 160.431 29.3821C160.561 28.9693 160.602 28.5336 160.552 28.1037L159.955 23.1177C159.926 22.8694 159.926 22.6185 159.955 22.3702L161.2 12.4995ZM153.187 25.3794L153.166 25.4023C152.643 26.0273 151.998 26.5392 151.27 26.9069C150.554 27.2654 149.763 27.4501 148.962 27.4461C148.235 27.4596 147.518 27.2731 146.89 26.9069C146.287 26.547 145.796 26.026 145.473 25.4023C145.125 24.726 144.95 23.9739 144.963 23.2133C144.947 22.4426 145.123 21.6801 145.473 20.9937C145.802 20.3567 146.304 19.8251 146.921 19.4597C147.538 19.0943 148.245 18.9097 148.962 18.927C149.765 18.9236 150.556 19.1138 151.27 19.4814C151.996 19.8573 152.641 20.3732 153.166 20.9994L153.184 21.0185C153.693 21.6309 153.972 22.4019 153.972 23.1983C153.973 23.9946 153.695 24.7661 153.187 25.3794Z" fill="#FF4785"/>
<path d="M134.652 27.0178H126.131C125.775 27.0189 125.424 26.9424 125.1 26.7937C124.777 26.6449 124.49 26.4276 124.259 26.1567C124.028 25.8857 123.859 25.5678 123.763 25.2249C123.668 24.882 123.648 24.5224 123.705 24.1711C124.049 22.0546 124.049 19.8964 123.705 17.7799C123.648 17.4285 123.667 17.0687 123.762 16.7255C123.858 16.3824 124.027 16.0642 124.258 15.7931C124.489 15.5219 124.776 15.3044 125.1 15.1555C125.423 15.0067 125.775 14.9302 126.131 14.9313H134.507C134.829 14.9313 135.148 14.8678 135.446 14.7446C135.743 14.6213 136.014 14.4406 136.241 14.2129C136.469 13.9851 136.65 13.7147 136.773 13.4171C136.896 13.1195 136.96 12.8005 136.96 12.4784C136.96 12.1563 136.896 11.8374 136.773 11.5398C136.65 11.2422 136.469 10.9718 136.241 10.744C136.014 10.5162 135.743 10.3356 135.446 10.2123C135.148 10.089 134.829 10.0256 134.507 10.0256H119.61C119.257 10.0257 118.908 10.1021 118.587 10.2496C118.266 10.397 117.981 10.6121 117.75 10.8801C117.52 11.148 117.351 11.4625 117.253 11.8021C117.156 12.1416 117.133 12.4982 117.186 12.8474L117.97 17.9845C118.272 19.9664 118.272 21.9827 117.97 23.9646L117.19 29.1017C117.136 29.4509 117.158 29.8077 117.255 30.1476C117.351 30.4875 117.521 30.8024 117.751 31.0708C117.98 31.3392 118.266 31.5547 118.587 31.7026C118.908 31.8504 119.257 31.9271 119.61 31.9273H134.652C134.98 31.9365 135.306 31.8799 135.612 31.7607C135.917 31.6416 136.196 31.4625 136.431 31.2339C136.666 31.0053 136.853 30.7319 136.98 30.4299C137.108 30.1279 137.174 29.8033 137.174 29.4754C137.174 29.1476 137.108 28.823 136.98 28.521C136.853 28.2189 136.666 27.9456 136.431 27.717C136.196 27.4884 135.917 27.3092 135.612 27.1901C135.306 27.071 134.98 27.0144 134.652 27.0235V27.0178Z" fill="#FF4785"/>
<path d="M127.223 19.2195C126.741 19.2195 126.279 19.4109 125.939 19.7515C125.598 20.0921 125.407 20.554 125.407 21.0357C125.407 21.5174 125.598 21.9794 125.939 22.32C126.279 22.6606 126.741 22.852 127.223 22.852H130.855C131.337 22.852 131.799 22.6606 132.14 22.32C132.48 21.9794 132.672 21.5174 132.672 21.0357C132.672 20.554 132.48 20.0921 132.14 19.7515C131.799 19.4109 131.337 19.2195 130.855 19.2195H127.223Z" fill="#FF4785"/>
<path d="M32.1578 24.9072H40.9713C41.4287 24.9088 41.8804 24.8052 42.2914 24.6044C42.7024 24.4036 43.0617 24.111 43.3415 23.7491C43.6213 23.3872 43.8141 22.9659 43.905 22.5176C43.9959 22.0693 43.9825 21.6061 43.8658 21.1638C43.6942 20.5328 43.4644 19.919 43.1795 19.3304C42.4684 17.8174 41.3325 16.544 39.9103 15.6654C38.4981 14.7987 36.7902 14.366 34.7866 14.3673C32.9963 14.34 31.2234 14.7226 29.6037 15.4857C28.1448 16.1665 26.8984 17.2311 25.998 18.5657C25.1098 19.9216 24.652 21.5143 24.6846 23.1349C24.6506 24.7918 25.1301 26.4185 26.0572 27.7921C27.0016 29.1501 28.2985 30.2249 29.8082 30.9007C31.3938 31.6399 33.1991 32.0096 35.2244 32.0096C36.8274 32.0187 38.4238 31.8045 39.9676 31.3729C41.0135 31.0806 42.022 30.668 42.973 30.1436C43.2531 29.9871 43.4863 29.7585 43.6483 29.4815C43.8104 29.2045 43.8954 28.8892 43.8945 28.5683C43.8944 28.2815 43.8259 27.9989 43.6947 27.7439C43.5634 27.4889 43.3733 27.2689 43.14 27.1022C42.9067 26.9354 42.6369 26.8267 42.3532 26.7851C42.0695 26.7435 41.7799 26.7702 41.5085 26.8629C41.2065 26.9649 40.8974 27.0573 40.5813 27.1402C39.3832 27.4592 38.1486 27.6212 36.9087 27.6219C35.5666 27.6219 34.4329 27.4269 33.5076 27.0369C32.8399 26.7577 32.2419 26.3347 31.7564 25.7981C31.6869 25.7211 31.6413 25.6256 31.6252 25.5232C31.6092 25.4208 31.6233 25.3159 31.6659 25.2214C31.7085 25.1269 31.7777 25.0468 31.8651 24.991C31.9524 24.9352 32.0542 24.9061 32.1578 24.9072ZM31.2191 20.5482C31.5624 19.9408 32.0673 19.4405 32.6779 19.1029C33.3689 18.7353 34.1438 18.5541 34.9262 18.5771C35.6402 18.5574 36.3476 18.7178 36.9833 19.0436C37.5625 19.3591 38.0429 19.829 38.3713 20.401C38.3999 20.4488 38.4267 20.4966 38.4516 20.5463C38.4931 20.6253 38.5137 20.7137 38.5113 20.8029C38.509 20.8922 38.4837 20.9793 38.4381 21.056C38.3924 21.1327 38.3279 21.1965 38.2506 21.2411C38.1733 21.2858 38.0858 21.3098 37.9965 21.311H31.6799C31.5902 21.3112 31.502 21.2881 31.4238 21.2441C31.3457 21.2001 31.2802 21.1366 31.2339 21.0599C31.1875 20.9831 31.1618 20.8956 31.1592 20.806C31.1566 20.7163 31.1773 20.6275 31.2191 20.5482Z" fill="white"/>
<path d="M67.1154 23.567C67.085 23.313 67.085 23.0562 67.1154 22.8022L67.689 18.319C67.7501 17.914 67.7295 17.5008 67.6285 17.1039C67.5275 16.7069 67.348 16.3342 67.1008 16.0076C66.8535 15.681 66.5434 15.4073 66.1887 15.2024C65.834 14.9975 65.4419 14.8657 65.0354 14.8146C64.629 14.7636 64.2165 14.7944 63.8221 14.9053C63.4278 15.0161 63.0596 15.2047 62.7393 15.46C62.419 15.7153 62.153 16.0321 61.957 16.3918C61.7609 16.7515 61.6389 17.1467 61.5979 17.5543L61.5157 18.2062C60.7779 17.0886 59.7977 16.1515 58.648 15.4647C57.3423 14.7443 55.8749 14.3677 54.3836 14.3704C52.8924 14.373 51.4263 14.7549 50.1232 15.48C48.8916 16.2225 47.8908 17.2928 47.2325 18.5714C46.5315 19.8944 46.181 21.4417 46.181 23.2133C46.1505 24.8058 46.5116 26.3814 47.2325 27.8017C47.8884 29.0872 48.8954 30.1605 50.1366 30.8969C51.4468 31.6447 52.9356 32.0227 54.4439 31.9904C55.9229 32.0155 57.3809 31.6375 58.6614 30.8969C59.8129 30.2085 60.7908 29.2646 61.5196 28.1381L61.6075 28.8398C61.7028 29.58 62.0646 30.26 62.6252 30.7527C63.1858 31.2454 63.9067 31.5168 64.653 31.5163C65.0865 31.5164 65.5151 31.4243 65.9104 31.2461C66.3056 31.068 66.6584 30.8078 66.9455 30.483C67.2326 30.1581 67.4473 29.7759 67.5755 29.3618C67.7037 28.9477 67.7424 28.511 67.689 28.0808L67.1154 23.567ZM60.4241 25.3794L60.4031 25.4023C59.8795 26.0273 59.2342 26.5392 58.5065 26.9069C57.7961 27.2624 57.0125 27.4471 56.2181 27.4461C55.4909 27.4596 54.774 27.2731 54.1457 26.9069C53.5426 26.547 53.052 26.026 52.729 25.4023C52.3807 24.726 52.2053 23.9739 52.2186 23.2133C52.2029 22.4426 52.3783 21.6801 52.729 20.9937C53.0583 20.3567 53.5601 19.8251 54.177 19.4597C54.794 19.0943 55.5012 18.9097 56.2181 18.927C57.0207 18.9236 57.8122 19.1138 58.5257 19.4814C59.2518 19.8573 59.8964 20.3732 60.4222 20.9994L60.4394 21.0185C60.9482 21.6312 61.2268 22.4025 61.2268 23.1989C61.2268 23.9954 60.9482 24.7667 60.4394 25.3794H60.4241Z" fill="white"/>
<path d="M78.1543 19.3094C78.8661 18.9552 79.6536 18.78 80.4485 18.7989C81.5764 18.7989 82.5323 19.0666 83.3162 19.6019C83.7449 19.8938 84.1028 20.2779 84.3639 20.726C84.5758 21.0843 84.878 21.3807 85.2403 21.5856C85.6026 21.7906 86.0124 21.897 86.4286 21.8941H87.2373C89.2619 21.8941 90.4109 19.533 89.1243 17.9711L89.0956 17.9367C88.1127 16.7827 86.8669 15.8818 85.4631 15.3098C83.876 14.6557 82.1726 14.3305 80.4561 14.3539C78.4168 14.3539 76.6165 14.7286 75.0552 15.4781C73.5765 16.1598 72.3139 17.2353 71.4056 18.5867C70.5159 19.9583 70.0584 21.5654 70.0921 23.1999C70.0599 24.8265 70.5175 26.4251 71.4056 27.7883C72.3113 29.1387 73.575 30.2104 75.0552 30.8835C76.6114 31.6227 78.4117 31.9924 80.4561 31.9924C82.1706 32.0175 83.8728 31.7003 85.4631 31.0594C86.8712 30.4943 88.1187 29.5915 89.0956 28.4306L89.1243 28.3981C90.3995 26.8362 89.2524 24.4904 87.2354 24.4904H86.4152C86.0016 24.49 85.5948 24.5962 85.2341 24.7988C84.8735 25.0014 84.5711 25.2935 84.3562 25.647C84.0914 26.0767 83.7421 26.448 83.3296 26.7387C82.4876 27.3177 81.4832 27.6136 80.4618 27.5837C79.667 27.6026 78.8795 27.4274 78.1677 27.0732C77.5231 26.7412 76.994 26.2221 76.6497 25.5839C76.2689 24.853 76.0801 24.0372 76.101 23.2133C76.0736 22.3776 76.2591 21.5487 76.6401 20.8044C76.983 20.1651 77.5107 19.6441 78.1543 19.3094Z" fill="white"/>
<path d="M111.852 18.0456C111.276 16.9068 110.378 15.9626 109.269 15.3309C108.149 14.6936 106.781 14.375 105.166 14.375C103.889 14.3617 102.63 14.6785 101.511 15.2945C100.547 15.8412 99.7147 16.5931 99.0734 17.497V12.0445C99.0835 11.645 99.0135 11.2477 98.8677 10.8757C98.7218 10.5038 98.503 10.1648 98.224 9.87871C97.9451 9.59265 97.6118 9.36531 97.2436 9.21009C96.8755 9.05486 96.48 8.9749 96.0805 8.9749C95.6809 8.9749 95.2854 9.05486 94.9173 9.21009C94.5491 9.36531 94.2158 9.59265 93.9369 9.87871C93.6579 10.1648 93.4391 10.5038 93.2932 10.8757C93.1474 11.2477 93.0774 11.645 93.0875 12.0445V28.5396C93.1072 29.3203 93.4312 30.0624 93.9904 30.6076C94.5495 31.1527 95.2995 31.4579 96.0805 31.4579C96.8614 31.4579 97.6114 31.1527 98.1705 30.6076C98.7297 30.0624 99.0537 29.3203 99.0734 28.5396V23.5154C99.0514 22.7234 99.2164 21.9374 99.5552 21.2212C99.8609 20.5949 100.35 20.0762 100.957 19.7338C101.612 19.3715 102.353 19.1901 103.102 19.208C104.289 19.208 105.2 19.5388 105.832 20.2003C106.464 20.8618 106.782 21.8177 106.788 23.068V28.5434C106.807 29.3241 107.131 30.0662 107.69 30.6114C108.25 31.1566 109 31.4617 109.781 31.4617C110.561 31.4617 111.311 31.1566 111.871 30.6114C112.43 30.0662 112.754 29.3241 112.773 28.5434V22.1905C112.768 20.596 112.461 19.2144 111.852 18.0456Z" fill="white"/>
<path d="M19.1001 16.3556C18.915 16.4067 18.7419 16.4944 18.5913 16.6137C18.4407 16.7329 18.3156 16.8812 18.2234 17.0498C18.1312 17.2183 18.0738 17.4037 18.0546 17.5948C18.0355 17.786 18.0549 17.979 18.1118 18.1625C18.1687 18.346 18.2619 18.5162 18.3858 18.6629C18.5098 18.8097 18.6619 18.9301 18.8333 19.0169C19.0047 19.1037 19.1917 19.1552 19.3834 19.1684C19.575 19.1815 19.7674 19.156 19.949 19.0933C20.254 18.9788 20.5798 18.9306 20.9049 18.9518C20.9833 19.5445 20.23 21.6571 17.7083 24.0698C17.5745 24.1979 17.4426 24.3202 17.3126 24.4388C17.1919 25.8558 16.911 27.2547 16.4752 28.6084C17.6382 27.9124 18.7171 27.0849 19.6909 26.1422C21.2318 24.6624 22.4516 23.0221 23.1436 21.506C24.3232 18.9098 23.5547 17.5333 22.9907 16.9444C22.4936 16.4282 21.3293 15.6635 19.1001 16.3556Z" fill="white"/>
<path d="M12.3419 11.9489C18.7299 11.9489 23.9084 10.2798 23.9084 8.22081C23.9084 6.16187 18.7299 4.49277 12.3419 4.49277C5.95389 4.49277 0.775391 6.16187 0.775391 8.22081C0.775391 10.2798 5.95389 11.9489 12.3419 11.9489Z" fill="white"/>
<path d="M22.0826 4.73749C22.6064 2.28654 21.9793 0.340306 20.3906 0.0382388C18.8478 -0.246622 16.8538 1.11842 15.3931 3.28833C17.2737 3.42401 19.1333 3.769 20.9374 4.31689C21.3542 4.44689 21.7346 4.58836 22.0826 4.73749Z" fill="white"/>
<path d="M3.75208 4.31115C5.49465 3.78121 7.28947 3.44147 9.10517 3.29789C7.65793 1.12415 5.64861 -0.248535 4.10195 0.0382372C2.49793 0.334569 1.87277 2.33242 2.42719 4.81778C2.85971 4.62597 3.30194 4.45686 3.75208 4.31115Z" fill="white"/>
<path d="M13.3781 13.2718C13.034 13.2718 12.6898 13.2871 12.3419 13.2871C11.9939 13.2871 11.6498 13.2871 11.3057 13.2718C9.76092 14.3941 8.61383 17.9711 8.61383 22.2191C8.61383 27.3638 10.2828 31.5335 12.3419 31.5335C14.4009 31.5335 16.0699 27.3638 16.0699 22.2191C16.0699 17.9711 14.9324 14.3941 13.3781 13.2718Z" fill="white"/>
</g>
<defs>
<clipPath id="clip0_57_1250">
<rect width="160.449" height="32" fill="white" transform="translate(0.775391)"/>
</clipPath>
</defs>
</svg>
