<svg width="265" height="265" viewBox="0 0 265 265" fill="none" xmlns="http://www.w3.org/2000/svg">
<g clip-path="url(#clip0_358_18579)">
<path d="M264.5 132.25C264.5 59.2103 205.29 0 132.25 0C59.2103 0 0 59.2103 0 132.25C0 205.29 59.2103 264.5 132.25 264.5C205.29 264.5 264.5 205.29 264.5 132.25Z" fill="#FF4785"/>
<path d="M167.6 135.33C166.614 135.579 165.689 136.026 164.881 136.644C164.073 137.261 163.4 138.037 162.901 138.923C162.402 139.809 162.089 140.788 161.98 141.799C161.871 142.81 161.969 143.832 162.268 144.804C162.566 145.777 163.06 146.678 163.717 147.453C164.375 148.229 165.184 148.862 166.094 149.316C167.004 149.769 167.997 150.032 169.013 150.09C170.028 150.147 171.044 149.998 172 149.65C173.597 149.058 175.3 148.806 177 148.91C177.41 152.01 173.47 163.06 160.28 175.68C159.58 176.35 158.89 176.99 158.21 177.61C157.579 185.025 156.11 192.345 153.83 199.43C159.906 195.775 165.548 191.444 170.65 186.52C178.71 178.81 185.13 170.2 188.74 162.27C194.91 148.69 190.89 141.49 187.94 138.41C185.35 135.71 179.26 131.71 167.6 135.33Z" fill="white"/>
<path d="M132.25 112.28C165.663 112.28 192.75 103.55 192.75 92.78C192.75 82.0105 165.663 73.28 132.25 73.28C98.8368 73.28 71.75 82.0105 71.75 92.78C71.75 103.55 98.8368 112.28 132.25 112.28Z" fill="white"/>
<path d="M183.2 74.5601C185.94 61.7401 182.66 51.5101 174.35 49.9801C166.28 48.4901 155.85 55.6301 148.21 66.9801C158.047 67.6898 167.773 69.4943 177.21 72.3601C179.39 73.0001 181.38 73.7901 183.2 74.5601Z" fill="white"/>
<path d="M87.3199 72.3299C96.4346 69.558 105.823 67.781 115.32 67.0299C107.7 55.6599 97.2399 48.4799 89.1499 49.9999C80.7599 51.5499 77.4899 61.9999 80.3899 74.9999C82.6518 73.9898 84.9649 73.0986 87.3199 72.3299Z" fill="white"/>
<path d="M137.67 119.2C135.87 119.2 134.07 119.28 132.25 119.28C130.43 119.28 128.63 119.28 126.83 119.2C118.7 125.07 112.75 143.79 112.75 166C112.75 192.91 121.48 214.72 132.25 214.72C143.02 214.72 151.75 192.91 151.75 166C151.75 143.79 145.8 125.07 137.67 119.2Z" fill="white"/>
</g>
<defs>
<clipPath id="clip0_358_18579">
<rect width="264.5" height="264.5" fill="white"/>
</clipPath>
</defs>
</svg>
